<svg width="177" height="29" viewBox="0 0 177 29" fill="none" xmlns="http://www.w3.org/2000/svg">
<path d="M68.2597 7.79875C67.5513 8.125 66.7966 8.34125 66.0097 8.44625C66.8192 7.93875 67.437 7.14125 67.7275 6.18C66.9727 6.6525 66.1394 6.98625 65.2513 7.1725C64.5346 6.37125 63.5132 5.875 62.3989 5.875C60.237 5.875 58.4966 7.7175 58.4966 9.97625C58.4966 10.3012 58.5228 10.6137 58.587 10.9113C55.3406 10.745 52.468 9.11125 50.5382 6.6225C50.2013 7.23625 50.0037 7.93875 50.0037 8.695C50.0037 10.115 50.7001 11.3737 51.7382 12.1025C51.1108 12.09 50.4954 11.8987 49.9739 11.5975C49.9739 11.61 49.9739 11.6262 49.9739 11.6425C49.9739 13.635 51.3275 15.29 53.1025 15.6712C52.7847 15.7625 52.4382 15.8062 52.0787 15.8062C51.8287 15.8062 51.5763 15.7913 51.3394 15.7362C51.8454 17.36 53.2811 18.5538 54.9882 18.5925C53.6597 19.6838 51.9728 20.3412 50.1466 20.3412C49.8263 20.3412 49.5192 20.3263 49.212 20.285C50.9418 21.4563 52.9918 22.125 55.2025 22.125C62.3883 22.125 66.3168 15.875 66.3168 10.4575C66.3168 10.2762 66.3108 10.1012 66.3026 9.9275C67.0775 9.35 67.7287 8.62875 68.2597 7.79875Z" fill="#080829"/>
<g clip-path="url(#clip0_1_1040)">
<path d="M146.736 4.00098C141.484 4.00098 137.212 8.48691 137.212 14.0009C137.212 19.5148 141.484 24.0008 146.736 24.0008C151.987 24.0008 156.26 19.5148 156.26 14.0009C156.26 8.48691 151.987 4.00098 146.736 4.00098ZM152.942 8.71716C154.011 10.099 154.67 11.8433 154.724 13.7446C152.744 13.3141 150.95 13.3646 149.367 13.6906C149.081 12.9867 148.784 12.3161 148.484 11.6823C150.208 10.9024 151.709 9.90626 152.942 8.71716ZM151.869 7.57226C150.646 8.74499 149.228 9.6133 147.776 10.2544C146.71 8.20808 145.69 6.66713 145.069 5.79143C145.607 5.67112 146.164 5.60658 146.736 5.60658C148.689 5.60658 150.479 6.34665 151.869 7.57226ZM143.525 6.31582C143.994 6.954 145.111 8.55189 146.311 10.8253C143.295 11.8571 140.368 12.0309 138.962 12.0471C139.548 9.47596 141.263 7.36182 143.525 6.31582ZM138.75 13.6567C138.765 13.6567 138.779 13.6568 138.795 13.6568C139.766 13.6568 141.547 13.5882 143.643 13.1869C144.838 12.958 145.972 12.6498 147.036 12.2679C147.313 12.8475 147.589 13.4589 147.856 14.0998C146.366 14.6034 145.109 15.3281 144.114 16.0476C142.445 17.2542 141.276 18.593 140.638 19.4207C139.456 17.9572 138.741 16.0656 138.741 14.0009C138.741 13.8855 138.745 13.771 138.75 13.6567ZM141.74 20.5473C142.29 19.8207 143.408 18.4983 145.026 17.3378C146.126 16.5492 147.264 15.9632 148.435 15.5786C149.114 17.4281 149.695 19.4716 150.04 21.6414C149.032 22.1239 147.914 22.3952 146.736 22.3952C144.847 22.3952 143.11 21.7021 141.74 20.5473ZM151.447 20.7768C151.091 18.7841 150.559 16.9103 149.944 15.1979C151.456 14.9301 153.019 14.9853 154.624 15.3638C154.278 17.5785 153.104 19.5035 151.447 20.7768Z" fill="#080829"/>
</g>
<g clip-path="url(#clip1_1_1040)">
<path d="M112.241 9.88005C112.196 8.81738 112.033 8.0868 111.798 7.45374C111.556 6.78176 111.184 6.18014 110.697 5.68002C110.22 5.1721 109.644 4.77744 109.011 4.52745C108.405 4.28127 107.713 4.10943 106.701 4.06257C105.681 4.01175 105.357 4 102.771 4C100.185 4 99.8614 4.01175 98.8455 4.05861C97.8335 4.10546 97.1377 4.27746 96.5349 4.52348C95.8948 4.77743 95.3218 5.16814 94.8455 5.68002C94.3618 6.18014 93.986 6.78573 93.7478 7.44992C93.5134 8.0868 93.3497 8.81341 93.3051 9.87609C93.2567 10.9467 93.2455 11.2866 93.2455 14.002C93.2455 16.7173 93.2567 17.0572 93.3013 18.1239C93.3459 19.1865 93.5097 19.9171 93.7442 20.5502C93.986 21.2221 94.3618 21.8238 94.8455 22.3239C95.3218 22.8318 95.8986 23.2265 96.5311 23.4765C97.1377 23.7226 97.8297 23.8945 98.8419 23.9413C99.8576 23.9883 100.181 23.9999 102.767 23.9999C105.354 23.9999 105.677 23.9883 106.693 23.9413C107.705 23.8945 108.401 23.7226 109.004 23.4765C110.284 22.9568 111.296 21.8941 111.791 20.5502C112.025 19.9133 112.189 19.1865 112.234 18.1239C112.278 17.0572 112.289 16.7173 112.289 14.002C112.289 11.2866 112.286 10.9467 112.241 9.88005ZM110.526 18.0457C110.485 19.0225 110.328 19.5499 110.198 19.9015C109.878 20.7728 109.22 21.4643 108.39 21.8004C108.055 21.9372 107.549 22.1012 106.622 22.1441C105.618 22.1911 105.316 22.2027 102.775 22.2027C100.233 22.2027 99.9284 22.1911 98.9274 22.1441C97.9971 22.1012 97.4948 21.9372 97.1599 21.8004C96.747 21.6402 96.3711 21.3862 96.066 21.0541C95.7497 20.7298 95.5079 20.3391 95.3552 19.9055C95.225 19.5539 95.0688 19.0225 95.0279 18.0497C94.9831 16.9948 94.9721 16.6783 94.9721 14.0097C94.9721 11.3412 94.9831 11.0209 95.0279 9.96995C95.0688 8.99319 95.225 8.46575 95.3552 8.11412C95.5079 7.68038 95.7497 7.28586 96.0698 6.96536C96.3785 6.63327 96.7506 6.37931 97.1637 6.21921C97.4986 6.08247 98.0047 5.9184 98.9311 5.87537C99.9358 5.82851 100.237 5.81676 102.779 5.81676C105.324 5.81676 105.625 5.82851 106.626 5.87537C107.556 5.9184 108.059 6.08247 108.394 6.21921C108.807 6.37931 109.182 6.63327 109.487 6.96536C109.804 7.28967 110.046 7.68038 110.198 8.11412C110.328 8.46575 110.485 8.99701 110.526 9.96995C110.57 11.0248 110.581 11.3412 110.581 14.0097C110.581 16.6783 110.57 16.9908 110.526 18.0457Z" fill="#080829"/>
<path d="M102.77 8.86426C100.069 8.86426 97.8772 11.1654 97.8772 14.0019C97.8772 16.8385 100.069 19.1397 102.77 19.1397C105.472 19.1397 107.663 16.8385 107.663 14.0019C107.663 11.1654 105.472 8.86426 102.77 8.86426ZM102.77 17.3346C101.018 17.3346 99.5963 15.8422 99.5963 14.0019C99.5963 12.1617 101.018 10.6693 102.77 10.6693C104.523 10.6693 105.944 12.1617 105.944 14.0019C105.944 15.8422 104.523 17.3346 102.77 17.3346Z" fill="#080829"/>
<path d="M109.001 8.66133C109.001 9.3237 108.49 9.86076 107.859 9.86076C107.228 9.86076 106.716 9.3237 106.716 8.66133C106.716 7.99882 107.228 7.46191 107.859 7.46191C108.49 7.46191 109.001 7.99882 109.001 8.66133Z" fill="#080829"/>
</g>
<path d="M18.1697 7.32083H20.1102V4.14083C19.7754 4.0975 18.6241 4 17.2832 4C14.4854 4 12.5688 5.65583 12.5688 8.69917V11.5H9.48132V15.055H12.5688V24H16.3542V15.0558H19.3167L19.7869 11.5008H16.3532V9.05167C16.3542 8.02417 16.6482 7.32083 18.1697 7.32083Z" fill="#080829"/>
<defs>
<clipPath id="clip0_1_1040">
<rect width="20" height="20" fill="white" transform="translate(137 4)"/>
</clipPath>
<clipPath id="clip1_1_1040">
<rect width="20" height="20" fill="white" transform="translate(93 4)"/>
</clipPath>
</defs>
</svg>
