<svg width="211" height="124" viewBox="0 0 211 124" fill="none" xmlns="http://www.w3.org/2000/svg">
<path d="M13.288 46.528C11.5867 46.528 10.0027 46.2347 8.536 45.648C7.09867 45.0613 5.83733 44.2253 4.752 43.14C3.66667 42.0547 2.84533 40.764 2.288 39.268L4.972 37.948C5.64667 39.6493 6.74667 40.9987 8.272 41.996C9.82667 42.964 11.4987 43.448 13.288 43.448C14.7253 43.448 16.0013 43.1107 17.116 42.436C18.26 41.7613 19.1547 40.852 19.8 39.708C20.4453 38.5347 20.768 37.2293 20.768 35.792C20.768 34.296 20.4307 32.976 19.756 31.832C19.1107 30.688 18.2307 29.7933 17.116 29.148C16.0013 28.4733 14.74 28.136 13.332 28.136C11.8947 28.136 10.56 28.4733 9.328 29.148C8.12533 29.7933 7.24533 30.5853 6.688 31.524L3.916 30.996L6.38 13.22H22.968V16.3H7.656L9.02 15.112L7.04 29.104L5.676 28.488C6.70267 27.2267 7.90533 26.332 9.284 25.804C10.6627 25.2467 12.0707 24.968 13.508 24.968C15.62 24.968 17.4827 25.4667 19.096 26.464C20.7093 27.432 21.9707 28.7373 22.88 30.38C23.8187 31.9933 24.288 33.7973 24.288 35.792C24.288 37.816 23.804 39.6493 22.836 41.292C21.8973 42.9053 20.592 44.1813 18.92 45.12C17.2773 46.0587 15.4 46.528 13.288 46.528ZM44.7013 46.528C42.1199 46.528 39.8466 45.824 37.8813 44.416C35.9453 42.9787 34.4346 40.9987 33.3493 38.476C32.2639 35.924 31.7213 32.9613 31.7213 29.588C31.7213 26.2147 32.2639 23.2667 33.3493 20.744C34.4346 18.192 35.9453 16.212 37.8813 14.804C39.8173 13.396 42.0759 12.692 44.6573 12.692C47.2386 12.692 49.4973 13.396 51.4333 14.804C53.3693 16.212 54.8799 18.192 55.9653 20.744C57.0506 23.2667 57.5933 26.2147 57.5933 29.588C57.5933 32.9613 57.0506 35.924 55.9653 38.476C54.9093 41.028 53.4133 43.008 51.4773 44.416C49.5413 45.824 47.2826 46.528 44.7013 46.528ZM44.7013 43.228C46.5786 43.228 48.2213 42.656 49.6293 41.512C51.0373 40.368 52.1373 38.784 52.9293 36.76C53.7213 34.7067 54.1173 32.316 54.1173 29.588C54.1173 26.86 53.7213 24.484 52.9293 22.46C52.1373 20.4067 51.0373 18.8227 49.6293 17.708C48.2213 16.564 46.5639 15.992 44.6573 15.992C42.7799 15.992 41.1373 16.564 39.7293 17.708C38.3213 18.8227 37.2213 20.4067 36.4293 22.46C35.6373 24.484 35.2413 26.86 35.2413 29.588C35.2413 32.2867 35.6373 34.6627 36.4293 36.716C37.2213 38.7693 38.3213 40.368 39.7293 41.512C41.1666 42.656 42.8239 43.228 44.7013 43.228ZM78.3678 46.528C75.7865 46.528 73.5132 45.824 71.5478 44.416C69.6118 42.9787 68.1012 40.9987 67.0158 38.476C65.9305 35.924 65.3878 32.9613 65.3878 29.588C65.3878 26.2147 65.9305 23.2667 67.0158 20.744C68.1012 18.192 69.6118 16.212 71.5478 14.804C73.4838 13.396 75.7425 12.692 78.3238 12.692C80.9052 12.692 83.1638 13.396 85.0998 14.804C87.0358 16.212 88.5465 18.192 89.6318 20.744C90.7172 23.2667 91.2598 26.2147 91.2598 29.588C91.2598 32.9613 90.7172 35.924 89.6318 38.476C88.5758 41.028 87.0798 43.008 85.1438 44.416C83.2078 45.824 80.9492 46.528 78.3678 46.528ZM78.3678 43.228C80.2452 43.228 81.8878 42.656 83.2958 41.512C84.7038 40.368 85.8038 38.784 86.5958 36.76C87.3878 34.7067 87.7838 32.316 87.7838 29.588C87.7838 26.86 87.3878 24.484 86.5958 22.46C85.8038 20.4067 84.7038 18.8227 83.2958 17.708C81.8878 16.564 80.2305 15.992 78.3238 15.992C76.4465 15.992 74.8038 16.564 73.3958 17.708C71.9878 18.8227 70.8878 20.4067 70.0958 22.46C69.3038 24.484 68.9078 26.86 68.9078 29.588C68.9078 32.2867 69.3038 34.6627 70.0958 36.716C70.8878 38.7693 71.9878 40.368 73.3958 41.512C74.8332 42.656 76.4905 43.228 78.3678 43.228ZM99.2744 46V12.692H102.574V36.012L101.166 35.792L114.41 22.416H118.678L109.438 31.876L119.514 46H115.554L106.094 32.932L108.206 33.108L101.474 40.06L102.574 37.332V46H99.2744Z" fill="#080829"/>
<path d="M133.768 47V36.776H123.544V33.176H133.768V23H137.368V33.176H147.544V36.776H137.368V47H133.768Z" fill="#3F53D8"/>
<path d="M7.276 92.204C6.38067 92.204 5.559 92.0453 4.811 91.728C4.063 91.3993 3.41133 90.946 2.856 90.368C2.312 89.7787 1.887 89.0873 1.581 88.294C1.275 87.5007 1.122 86.628 1.122 85.676C1.122 84.724 1.275 83.8513 1.581 83.058C1.887 82.2647 2.312 81.5733 2.856 80.984C3.41133 80.3947 4.063 79.9413 4.811 79.624C5.559 79.2953 6.38067 79.131 7.276 79.131C8.13733 79.131 8.908 79.284 9.588 79.59C10.2793 79.896 10.8573 80.2927 11.322 80.78C11.798 81.256 12.138 81.7603 12.342 82.293L11.067 82.854C10.7497 82.1173 10.2623 81.528 9.605 81.086C8.959 80.6327 8.18267 80.406 7.276 80.406C6.34667 80.406 5.51933 80.627 4.794 81.069C4.06867 81.511 3.502 82.1287 3.094 82.922C2.686 83.704 2.482 84.622 2.482 85.676C2.482 86.7187 2.686 87.6367 3.094 88.43C3.502 89.2233 4.06867 89.841 4.794 90.283C5.51933 90.7137 6.34667 90.929 7.276 90.929C8.18267 90.929 8.959 90.708 9.605 90.266C10.2623 89.824 10.7497 89.2347 11.067 88.498L12.342 89.059C12.138 89.5803 11.798 90.0847 11.322 90.572C10.8573 91.048 10.2793 91.439 9.588 91.745C8.908 92.051 8.13733 92.204 7.276 92.204ZM18.6912 92.204C17.8299 92.204 17.0479 92 16.3452 91.592C15.6426 91.1727 15.0816 90.606 14.6622 89.892C14.2542 89.1667 14.0502 88.345 14.0502 87.427C14.0502 86.5203 14.2542 85.71 14.6622 84.996C15.0702 84.282 15.6199 83.721 16.3112 83.313C17.0139 82.8937 17.8072 82.684 18.6912 82.684C19.5752 82.684 20.3629 82.888 21.0542 83.296C21.7569 83.704 22.3066 84.265 22.7032 84.979C23.1112 85.693 23.3152 86.509 23.3152 87.427C23.3152 88.3563 23.1056 89.1837 22.6862 89.909C22.2669 90.623 21.7059 91.184 21.0032 91.592C20.3119 92 19.5412 92.204 18.6912 92.204ZM18.6912 90.929C19.3032 90.929 19.8529 90.776 20.3402 90.47C20.8389 90.164 21.2299 89.7447 21.5132 89.212C21.8079 88.6793 21.9552 88.0843 21.9552 87.427C21.9552 86.7697 21.8079 86.1803 21.5132 85.659C21.2299 85.1377 20.8389 84.724 20.3402 84.418C19.8529 84.112 19.3032 83.959 18.6912 83.959C18.0792 83.959 17.5239 84.112 17.0252 84.418C16.5379 84.724 16.1469 85.1377 15.8522 85.659C15.5576 86.1803 15.4102 86.7697 15.4102 87.427C15.4102 88.0843 15.5576 88.6793 15.8522 89.212C16.1469 89.7447 16.5379 90.164 17.0252 90.47C17.5239 90.776 18.0792 90.929 18.6912 90.929ZM25.5639 92V79.131H26.8389V92H25.5639ZM29.4486 92V79.131H30.7236V92H29.4486ZM35.9684 92.204C35.3904 92.204 34.8747 92.0963 34.4214 91.881C33.9681 91.6543 33.6111 91.3483 33.3504 90.963C33.0897 90.5777 32.9594 90.1357 32.9594 89.637C32.9594 89.161 33.0614 88.7303 33.2654 88.345C33.4694 87.9483 33.7867 87.614 34.2174 87.342C34.6481 87.07 35.1977 86.8773 35.8664 86.764L39.4364 86.169V87.325L36.1724 87.869C35.5151 87.9823 35.0391 88.192 34.7444 88.498C34.4611 88.804 34.3194 89.1667 34.3194 89.586C34.3194 89.994 34.4781 90.3397 34.7954 90.623C35.1241 90.9063 35.5434 91.048 36.0534 91.048C36.6767 91.048 37.2207 90.9177 37.6854 90.657C38.1501 90.385 38.5127 90.0223 38.7734 89.569C39.0341 89.1157 39.1644 88.6113 39.1644 88.056V85.744C39.1644 85.2 38.9661 84.758 38.5694 84.418C38.1727 84.078 37.6571 83.908 37.0224 83.908C36.4671 83.908 35.9797 84.0497 35.5604 84.333C35.1411 84.605 34.8294 84.962 34.6254 85.404L33.4694 84.775C33.6394 84.3897 33.9057 84.0383 34.2684 83.721C34.6424 83.4037 35.0674 83.1543 35.5434 82.973C36.0194 82.7803 36.5124 82.684 37.0224 82.684C37.6911 82.684 38.2804 82.8143 38.7904 83.075C39.3117 83.3357 39.7141 83.6983 39.9974 84.163C40.2921 84.6163 40.4394 85.1433 40.4394 85.744V92H39.1644V90.181L39.3514 90.368C39.1927 90.708 38.9434 91.0197 38.6034 91.303C38.2747 91.575 37.8837 91.796 37.4304 91.966C36.9884 92.1247 36.5011 92.204 35.9684 92.204ZM47.6689 92.204C46.8869 92.204 46.1786 92.0283 45.5439 91.677C44.9206 91.3143 44.4503 90.8043 44.1329 90.147L44.3369 89.96V92H43.0619V79.131H44.3369V84.928L44.1329 84.571C44.4956 83.993 44.9773 83.534 45.5779 83.194C46.1899 82.854 46.8869 82.684 47.6689 82.684C48.5303 82.684 49.2953 82.8937 49.9639 83.313C50.6439 83.721 51.1766 84.282 51.5619 84.996C51.9586 85.71 52.1569 86.526 52.1569 87.444C52.1569 88.3507 51.9586 89.1667 51.5619 89.892C51.1766 90.606 50.6439 91.1727 49.9639 91.592C49.2953 92 48.5303 92.204 47.6689 92.204ZM47.6009 90.929C48.2129 90.929 48.7569 90.776 49.2329 90.47C49.7203 90.164 50.0999 89.7503 50.3719 89.229C50.6553 88.6963 50.7969 88.1013 50.7969 87.444C50.7969 86.7753 50.6553 86.1803 50.3719 85.659C50.0999 85.1377 49.7203 84.724 49.2329 84.418C48.7569 84.112 48.2129 83.959 47.6009 83.959C46.9889 83.959 46.4336 84.112 45.9349 84.418C45.4476 84.724 45.0566 85.1433 44.7619 85.676C44.4786 86.1973 44.3369 86.7867 44.3369 87.444C44.3369 88.1013 44.4786 88.6963 44.7619 89.229C45.0566 89.7503 45.4476 90.164 45.9349 90.47C46.4336 90.776 46.9889 90.929 47.6009 90.929ZM57.2895 92V79.131H58.5645V84.656L58.2755 84.588C58.5021 83.9987 58.8705 83.534 59.3805 83.194C59.9018 82.854 60.5025 82.684 61.1825 82.684C61.8285 82.684 62.4065 82.8313 62.9165 83.126C63.4378 83.4207 63.8458 83.8287 64.1405 84.35C64.4465 84.86 64.5995 85.438 64.5995 86.084V92H63.3245V86.577C63.3245 86.0217 63.2225 85.5513 63.0185 85.166C62.8145 84.7807 62.5311 84.486 62.1685 84.282C61.8171 84.0667 61.4148 83.959 60.9615 83.959C60.5081 83.959 60.1001 84.0667 59.7375 84.282C59.3748 84.486 59.0858 84.7863 58.8705 85.183C58.6665 85.5683 58.5645 86.033 58.5645 86.577V92H57.2895ZM69.6696 92.204C69.0916 92.204 68.5759 92.0963 68.1226 91.881C67.6693 91.6543 67.3123 91.3483 67.0516 90.963C66.7909 90.5777 66.6606 90.1357 66.6606 89.637C66.6606 89.161 66.7626 88.7303 66.9666 88.345C67.1706 87.9483 67.4879 87.614 67.9186 87.342C68.3493 87.07 68.8989 86.8773 69.5676 86.764L73.1376 86.169V87.325L69.8736 87.869C69.2163 87.9823 68.7403 88.192 68.4456 88.498C68.1623 88.804 68.0206 89.1667 68.0206 89.586C68.0206 89.994 68.1793 90.3397 68.4966 90.623C68.8253 90.9063 69.2446 91.048 69.7546 91.048C70.3779 91.048 70.9219 90.9177 71.3866 90.657C71.8513 90.385 72.2139 90.0223 72.4746 89.569C72.7353 89.1157 72.8656 88.6113 72.8656 88.056V85.744C72.8656 85.2 72.6673 84.758 72.2706 84.418C71.8739 84.078 71.3583 83.908 70.7236 83.908C70.1683 83.908 69.6809 84.0497 69.2616 84.333C68.8423 84.605 68.5306 84.962 68.3266 85.404L67.1706 84.775C67.3406 84.3897 67.6069 84.0383 67.9696 83.721C68.3436 83.4037 68.7686 83.1543 69.2446 82.973C69.7206 82.7803 70.2136 82.684 70.7236 82.684C71.3923 82.684 71.9816 82.8143 72.4916 83.075C73.0129 83.3357 73.4153 83.6983 73.6986 84.163C73.9933 84.6163 74.1406 85.1433 74.1406 85.744V92H72.8656V90.181L73.0526 90.368C72.8939 90.708 72.6446 91.0197 72.3046 91.303C71.9759 91.575 71.5849 91.796 71.1316 91.966C70.6896 92.1247 70.2023 92.204 69.6696 92.204ZM79.9251 92.204C79.0524 92.204 78.2874 91.983 77.6301 91.541C76.9728 91.099 76.4968 90.4983 76.2021 89.739L77.2731 89.229C77.5338 89.7843 77.8964 90.2263 78.3611 90.555C78.8371 90.8837 79.3584 91.048 79.9251 91.048C80.4691 91.048 80.9281 90.9177 81.3021 90.657C81.6761 90.385 81.8631 90.0337 81.8631 89.603C81.8631 89.2857 81.7724 89.0363 81.5911 88.855C81.4098 88.6623 81.2001 88.515 80.9621 88.413C80.7241 88.311 80.5144 88.2373 80.3331 88.192L79.0241 87.818C78.1854 87.58 77.5791 87.2457 77.2051 86.815C76.8311 86.3843 76.6441 85.8857 76.6441 85.319C76.6441 84.7863 76.7801 84.3217 77.0521 83.925C77.3241 83.5283 77.6924 83.2223 78.1571 83.007C78.6218 82.7917 79.1374 82.684 79.7041 82.684C80.4748 82.684 81.1718 82.888 81.7951 83.296C82.4298 83.6927 82.8774 84.248 83.1381 84.962L82.0501 85.472C81.8234 84.962 81.4948 84.5653 81.0641 84.282C80.6448 83.9873 80.1744 83.84 79.6531 83.84C79.1431 83.84 78.7351 83.9703 78.4291 84.231C78.1231 84.4917 77.9701 84.8203 77.9701 85.217C77.9701 85.523 78.0494 85.7667 78.2081 85.948C78.3668 86.1293 78.5481 86.2653 78.7521 86.356C78.9674 86.4467 79.1544 86.5147 79.3131 86.56L80.8261 87.002C81.5628 87.2173 82.1351 87.5517 82.5431 88.005C82.9624 88.4583 83.1721 88.991 83.1721 89.603C83.1721 90.1017 83.0304 90.5493 82.7471 90.946C82.4751 91.3427 82.0954 91.6543 81.6081 91.881C81.1208 92.0963 80.5598 92.204 79.9251 92.204ZM92.6192 95.74C91.9959 95.74 91.4179 95.6437 90.8852 95.451C90.3639 95.2583 89.9105 94.992 89.5252 94.652C89.1512 94.3233 88.8622 93.938 88.6582 93.496L89.8312 92.867C90.0125 93.2977 90.3355 93.6717 90.8002 93.989C91.2649 94.3063 91.8599 94.465 92.5852 94.465C93.1405 94.465 93.6505 94.3573 94.1152 94.142C94.5799 93.9267 94.9539 93.6093 95.2372 93.19C95.5205 92.7707 95.6622 92.255 95.6622 91.643V89.62L95.8662 89.807C95.5489 90.4643 95.0785 90.9743 94.4552 91.337C93.8319 91.6883 93.1519 91.864 92.4152 91.864C91.5652 91.864 90.8002 91.66 90.1202 91.252C89.4402 90.844 88.9019 90.2943 88.5052 89.603C88.1199 88.9003 87.9272 88.124 87.9272 87.274C87.9272 86.4127 88.1199 85.6363 88.5052 84.945C88.9019 84.2537 89.4345 83.704 90.1032 83.296C90.7832 82.888 91.5539 82.684 92.4152 82.684C93.1519 82.684 93.8205 82.854 94.4212 83.194C95.0332 83.534 95.5149 83.993 95.8662 84.571L95.6622 84.928V82.888H96.9372V91.643C96.9372 92.425 96.7502 93.122 96.3762 93.734C96.0135 94.3573 95.5035 94.8447 94.8462 95.196C94.2002 95.5587 93.4579 95.74 92.6192 95.74ZM92.4832 90.589C93.0725 90.589 93.6052 90.4417 94.0812 90.147C94.5572 89.841 94.9369 89.4387 95.2202 88.94C95.5149 88.43 95.6622 87.8747 95.6622 87.274C95.6622 86.6733 95.5149 86.1237 95.2202 85.625C94.9369 85.115 94.5572 84.7127 94.0812 84.418C93.6052 84.112 93.0725 83.959 92.4832 83.959C91.8825 83.959 91.3385 84.112 90.8512 84.418C90.3639 84.7127 89.9785 85.1093 89.6952 85.608C89.4232 86.1067 89.2872 86.662 89.2872 87.274C89.2872 87.8747 89.4232 88.43 89.6952 88.94C89.9785 89.4387 90.3582 89.841 90.8342 90.147C91.3215 90.4417 91.8712 90.589 92.4832 90.589ZM102.192 92.204C101.614 92.204 101.098 92.0963 100.645 91.881C100.192 91.6543 99.8347 91.3483 99.574 90.963C99.3134 90.5777 99.183 90.1357 99.183 89.637C99.183 89.161 99.285 88.7303 99.489 88.345C99.693 87.9483 100.01 87.614 100.441 87.342C100.872 87.07 101.421 86.8773 102.09 86.764L105.66 86.169V87.325L102.396 87.869C101.739 87.9823 101.263 88.192 100.968 88.498C100.685 88.804 100.543 89.1667 100.543 89.586C100.543 89.994 100.702 90.3397 101.019 90.623C101.348 90.9063 101.767 91.048 102.277 91.048C102.9 91.048 103.444 90.9177 103.909 90.657C104.374 90.385 104.736 90.0223 104.997 89.569C105.258 89.1157 105.388 88.6113 105.388 88.056V85.744C105.388 85.2 105.19 84.758 104.793 84.418C104.396 84.078 103.881 83.908 103.246 83.908C102.691 83.908 102.203 84.0497 101.784 84.333C101.365 84.605 101.053 84.962 100.849 85.404L99.693 84.775C99.863 84.3897 100.129 84.0383 100.492 83.721C100.866 83.4037 101.291 83.1543 101.767 82.973C102.243 82.7803 102.736 82.684 103.246 82.684C103.915 82.684 104.504 82.8143 105.014 83.075C105.535 83.3357 105.938 83.6983 106.221 84.163C106.516 84.6163 106.663 85.1433 106.663 85.744V92H105.388V90.181L105.575 90.368C105.416 90.708 105.167 91.0197 104.827 91.303C104.498 91.575 104.107 91.796 103.654 91.966C103.212 92.1247 102.725 92.204 102.192 92.204ZM109.286 92V82.888H110.561V84.384L110.391 84.163C110.606 83.7323 110.929 83.3923 111.36 83.143C111.802 82.8937 112.334 82.769 112.958 82.769H113.536V84.044H112.737C112.079 84.044 111.552 84.248 111.156 84.656C110.759 85.064 110.561 85.642 110.561 86.39V92H109.286ZM115.03 92V82.888H116.305V84.656L116.016 84.588C116.242 83.9987 116.611 83.534 117.121 83.194C117.642 82.854 118.243 82.684 118.923 82.684C119.569 82.684 120.147 82.8313 120.657 83.126C121.178 83.4207 121.586 83.8287 121.881 84.35C122.187 84.86 122.34 85.438 122.34 86.084V92H121.065V86.577C121.065 86.0217 120.963 85.5513 120.759 85.166C120.566 84.7807 120.288 84.486 119.926 84.282C119.574 84.0667 119.166 83.959 118.702 83.959C118.237 83.959 117.823 84.0667 117.461 84.282C117.098 84.486 116.815 84.7863 116.611 85.183C116.407 85.5683 116.305 86.033 116.305 86.577V92H115.03ZM128.923 92.204C128.073 92.204 127.302 92 126.611 91.592C125.931 91.1727 125.392 90.6003 124.996 89.875C124.599 89.1497 124.401 88.328 124.401 87.41C124.401 86.492 124.593 85.6817 124.979 84.979C125.364 84.265 125.885 83.704 126.543 83.296C127.211 82.888 127.959 82.684 128.787 82.684C129.444 82.684 130.028 82.8087 130.538 83.058C131.059 83.296 131.501 83.6247 131.864 84.044C132.226 84.452 132.504 84.9167 132.697 85.438C132.889 85.948 132.986 86.475 132.986 87.019C132.986 87.1323 132.98 87.2627 132.969 87.41C132.957 87.546 132.94 87.6877 132.918 87.835H125.217V86.645H132.187L131.575 87.155C131.677 86.5317 131.603 85.9763 131.354 85.489C131.116 84.9903 130.77 84.5993 130.317 84.316C129.863 84.0213 129.353 83.874 128.787 83.874C128.22 83.874 127.693 84.0213 127.206 84.316C126.73 84.6107 126.356 85.0243 126.084 85.557C125.812 86.0783 125.704 86.7017 125.761 87.427C125.704 88.1523 125.817 88.787 126.101 89.331C126.395 89.8637 126.792 90.2773 127.291 90.572C127.801 90.8667 128.345 91.014 128.923 91.014C129.591 91.014 130.152 90.8553 130.606 90.538C131.059 90.2207 131.427 89.824 131.711 89.348L132.799 89.926C132.617 90.334 132.34 90.7137 131.966 91.065C131.592 91.405 131.144 91.6827 130.623 91.898C130.113 92.102 129.546 92.204 128.923 92.204ZM135.234 92V82.888H136.509V84.384L136.339 84.163C136.554 83.7323 136.877 83.3923 137.308 83.143C137.75 82.8937 138.282 82.769 138.906 82.769H139.484V84.044H138.685C138.027 84.044 137.5 84.248 137.104 84.656C136.707 85.064 136.509 85.642 136.509 86.39V92H135.234ZM145.126 92.204C144.276 92.204 143.505 92 142.814 91.592C142.134 91.1727 141.596 90.6003 141.199 89.875C140.802 89.1497 140.604 88.328 140.604 87.41C140.604 86.492 140.797 85.6817 141.182 84.979C141.567 84.265 142.089 83.704 142.746 83.296C143.415 82.888 144.163 82.684 144.99 82.684C145.647 82.684 146.231 82.8087 146.741 83.058C147.262 83.296 147.704 83.6247 148.067 84.044C148.43 84.452 148.707 84.9167 148.9 85.438C149.093 85.948 149.189 86.475 149.189 87.019C149.189 87.1323 149.183 87.2627 149.172 87.41C149.161 87.546 149.144 87.6877 149.121 87.835H141.42V86.645H148.39L147.778 87.155C147.88 86.5317 147.806 85.9763 147.557 85.489C147.319 84.9903 146.973 84.5993 146.52 84.316C146.067 84.0213 145.557 83.874 144.99 83.874C144.423 83.874 143.896 84.0213 143.409 84.316C142.933 84.6107 142.559 85.0243 142.287 85.557C142.015 86.0783 141.907 86.7017 141.964 87.427C141.907 88.1523 142.021 88.787 142.304 89.331C142.599 89.8637 142.995 90.2773 143.494 90.572C144.004 90.8667 144.548 91.014 145.126 91.014C145.795 91.014 146.356 90.8553 146.809 90.538C147.262 90.2207 147.631 89.824 147.914 89.348L149.002 89.926C148.821 90.334 148.543 90.7137 148.169 91.065C147.795 91.405 147.347 91.6827 146.826 91.898C146.316 92.102 145.749 92.204 145.126 92.204ZM155.551 92.204C154.701 92.204 153.936 92 153.256 91.592C152.576 91.1727 152.038 90.606 151.641 89.892C151.256 89.1667 151.063 88.3507 151.063 87.444C151.063 86.526 151.256 85.71 151.641 84.996C152.038 84.282 152.57 83.721 153.239 83.313C153.919 82.8937 154.69 82.684 155.551 82.684C156.333 82.684 157.03 82.854 157.642 83.194C158.254 83.534 158.736 83.993 159.087 84.571L158.883 84.928V79.131H160.158V92H158.883V89.96L159.087 90.147C158.77 90.8043 158.294 91.3143 157.659 91.677C157.036 92.0283 156.333 92.204 155.551 92.204ZM155.619 90.929C156.231 90.929 156.781 90.776 157.268 90.47C157.767 90.164 158.158 89.7503 158.441 89.229C158.736 88.6963 158.883 88.1013 158.883 87.444C158.883 86.7867 158.736 86.1973 158.441 85.676C158.158 85.1433 157.767 84.724 157.268 84.418C156.781 84.112 156.231 83.959 155.619 83.959C155.018 83.959 154.474 84.112 153.987 84.418C153.5 84.724 153.114 85.1377 152.831 85.659C152.559 86.1803 152.423 86.7753 152.423 87.444C152.423 88.1013 152.559 88.6963 152.831 89.229C153.114 89.7503 153.494 90.164 153.97 90.47C154.457 90.776 155.007 90.929 155.619 90.929ZM1.309 119V109.888H2.584V111.622L2.38 111.367C2.62933 110.834 2.99767 110.421 3.485 110.126C3.98367 109.831 4.52767 109.684 5.117 109.684C5.81967 109.684 6.45433 109.882 7.021 110.279C7.58767 110.676 7.99 111.191 8.228 111.826L7.871 111.843C8.09767 111.14 8.48867 110.608 9.044 110.245C9.61067 109.871 10.234 109.684 10.914 109.684C11.526 109.684 12.087 109.831 12.597 110.126C13.1183 110.421 13.532 110.829 13.838 111.35C14.1553 111.86 14.314 112.438 14.314 113.084V119H13.039V113.577C13.039 113.022 12.937 112.551 12.733 112.166C12.5403 111.781 12.274 111.486 11.934 111.282C11.594 111.067 11.203 110.959 10.761 110.959C10.3303 110.959 9.93933 111.067 9.588 111.282C9.23667 111.486 8.959 111.786 8.755 112.183C8.551 112.568 8.449 113.033 8.449 113.577V119H7.174V113.577C7.174 113.022 7.072 112.551 6.868 112.166C6.67533 111.781 6.409 111.486 6.069 111.282C5.729 111.067 5.338 110.959 4.896 110.959C4.454 110.959 4.05733 111.067 3.706 111.282C3.366 111.486 3.094 111.786 2.89 112.183C2.686 112.568 2.584 113.033 2.584 113.577V119H1.309ZM21.0155 119.204C20.1541 119.204 19.3721 119 18.6695 118.592C17.9668 118.173 17.4058 117.606 16.9865 116.892C16.5785 116.167 16.3745 115.345 16.3745 114.427C16.3745 113.52 16.5785 112.71 16.9865 111.996C17.3945 111.282 17.9441 110.721 18.6355 110.313C19.3381 109.894 20.1315 109.684 21.0155 109.684C21.8995 109.684 22.6871 109.888 23.3785 110.296C24.0811 110.704 24.6308 111.265 25.0275 111.979C25.4355 112.693 25.6395 113.509 25.6395 114.427C25.6395 115.356 25.4298 116.184 25.0105 116.909C24.5911 117.623 24.0301 118.184 23.3275 118.592C22.6361 119 21.8655 119.204 21.0155 119.204ZM21.0155 117.929C21.6275 117.929 22.1771 117.776 22.6645 117.47C23.1631 117.164 23.5541 116.745 23.8375 116.212C24.1321 115.679 24.2795 115.084 24.2795 114.427C24.2795 113.77 24.1321 113.18 23.8375 112.659C23.5541 112.138 23.1631 111.724 22.6645 111.418C22.1771 111.112 21.6275 110.959 21.0155 110.959C20.4035 110.959 19.8481 111.112 19.3495 111.418C18.8621 111.724 18.4711 112.138 18.1765 112.659C17.8818 113.18 17.7345 113.77 17.7345 114.427C17.7345 115.084 17.8818 115.679 18.1765 116.212C18.4711 116.745 18.8621 117.164 19.3495 117.47C19.8481 117.776 20.4035 117.929 21.0155 117.929ZM27.8881 119V109.888H29.1631V111.384L28.9931 111.163C29.2084 110.732 29.5314 110.392 29.9621 110.143C30.4041 109.894 30.9368 109.769 31.5601 109.769H32.1381V111.044H31.3391C30.6818 111.044 30.1548 111.248 29.7581 111.656C29.3614 112.064 29.1631 112.642 29.1631 113.39V119H27.8881ZM37.7802 119.204C36.9302 119.204 36.1596 119 35.4682 118.592C34.7882 118.173 34.2499 117.6 33.8532 116.875C33.4566 116.15 33.2582 115.328 33.2582 114.41C33.2582 113.492 33.4509 112.682 33.8362 111.979C34.2216 111.265 34.7429 110.704 35.4002 110.296C36.0689 109.888 36.8169 109.684 37.6442 109.684C38.3016 109.684 38.8852 109.809 39.3952 110.058C39.9166 110.296 40.3586 110.625 40.7212 111.044C41.0839 111.452 41.3616 111.917 41.5542 112.438C41.7469 112.948 41.8432 113.475 41.8432 114.019C41.8432 114.132 41.8376 114.263 41.8262 114.41C41.8149 114.546 41.7979 114.688 41.7752 114.835H34.0742V113.645H41.0442L40.4322 114.155C40.5342 113.532 40.4606 112.976 40.2112 112.489C39.9732 111.99 39.6276 111.599 39.1742 111.316C38.7209 111.021 38.2109 110.874 37.6442 110.874C37.0776 110.874 36.5506 111.021 36.0632 111.316C35.5872 111.611 35.2132 112.024 34.9412 112.557C34.6692 113.078 34.5616 113.702 34.6182 114.427C34.5616 115.152 34.6749 115.787 34.9582 116.331C35.2529 116.864 35.6496 117.277 36.1482 117.572C36.6582 117.867 37.2022 118.014 37.7802 118.014C38.4489 118.014 39.0099 117.855 39.4632 117.538C39.9166 117.221 40.2849 116.824 40.5682 116.348L41.6562 116.926C41.4749 117.334 41.1972 117.714 40.8232 118.065C40.4492 118.405 40.0016 118.683 39.4802 118.898C38.9702 119.102 38.4036 119.204 37.7802 119.204ZM50.4649 119.102C49.6489 119.102 49.0199 118.864 48.5779 118.388C48.1359 117.912 47.9149 117.232 47.9149 116.348V111.163H46.2319V109.888H46.6569C47.0422 109.888 47.3482 109.763 47.5749 109.514C47.8016 109.253 47.9149 108.93 47.9149 108.545V107.78H49.1899V109.888H51.1959V111.163H49.1899V116.348C49.1899 116.654 49.2352 116.926 49.3259 117.164C49.4166 117.391 49.5696 117.572 49.7849 117.708C50.0116 117.844 50.3119 117.912 50.6859 117.912C50.7766 117.912 50.8842 117.906 51.0089 117.895C51.1336 117.884 51.2412 117.872 51.3319 117.861V119C51.1959 119.034 51.0429 119.057 50.8729 119.068C50.7029 119.091 50.5669 119.102 50.4649 119.102ZM53.5707 119V106.131H54.8457V111.656L54.5567 111.588C54.7834 110.999 55.1517 110.534 55.6617 110.194C56.1831 109.854 56.7837 109.684 57.4637 109.684C58.1097 109.684 58.6877 109.831 59.1977 110.126C59.7191 110.421 60.1271 110.829 60.4217 111.35C60.7277 111.86 60.8807 112.438 60.8807 113.084V119H59.6057V113.577C59.6057 113.022 59.5037 112.551 59.2997 112.166C59.0957 111.781 58.8124 111.486 58.4497 111.282C58.0984 111.067 57.6961 110.959 57.2427 110.959C56.7894 110.959 56.3814 111.067 56.0187 111.282C55.6561 111.486 55.3671 111.786 55.1517 112.183C54.9477 112.568 54.8457 113.033 54.8457 113.577V119H53.5707ZM65.9508 119.204C65.3728 119.204 64.8572 119.096 64.4038 118.881C63.9505 118.654 63.5935 118.348 63.3328 117.963C63.0722 117.578 62.9418 117.136 62.9418 116.637C62.9418 116.161 63.0438 115.73 63.2478 115.345C63.4518 114.948 63.7692 114.614 64.1998 114.342C64.6305 114.07 65.1802 113.877 65.8488 113.764L69.4188 113.169V114.325L66.1548 114.869C65.4975 114.982 65.0215 115.192 64.7268 115.498C64.4435 115.804 64.3018 116.167 64.3018 116.586C64.3018 116.994 64.4605 117.34 64.7778 117.623C65.1065 117.906 65.5258 118.048 66.0358 118.048C66.6592 118.048 67.2032 117.918 67.6678 117.657C68.1325 117.385 68.4952 117.022 68.7558 116.569C69.0165 116.116 69.1468 115.611 69.1468 115.056V112.744C69.1468 112.2 68.9485 111.758 68.5518 111.418C68.1552 111.078 67.6395 110.908 67.0048 110.908C66.4495 110.908 65.9622 111.05 65.5428 111.333C65.1235 111.605 64.8118 111.962 64.6078 112.404L63.4518 111.775C63.6218 111.39 63.8882 111.038 64.2508 110.721C64.6248 110.404 65.0498 110.154 65.5258 109.973C66.0018 109.78 66.4948 109.684 67.0048 109.684C67.6735 109.684 68.2628 109.814 68.7728 110.075C69.2942 110.336 69.6965 110.698 69.9798 111.163C70.2745 111.616 70.4218 112.143 70.4218 112.744V119H69.1468V117.181L69.3338 117.368C69.1752 117.708 68.9258 118.02 68.5858 118.303C68.2572 118.575 67.8662 118.796 67.4128 118.966C66.9708 119.125 66.4835 119.204 65.9508 119.204ZM73.0444 119V109.888H74.3194V111.656L74.0304 111.588C74.257 110.999 74.6254 110.534 75.1354 110.194C75.6567 109.854 76.2574 109.684 76.9374 109.684C77.5834 109.684 78.1614 109.831 78.6714 110.126C79.1927 110.421 79.6007 110.829 79.8954 111.35C80.2014 111.86 80.3544 112.438 80.3544 113.084V119H79.0794V113.577C79.0794 113.022 78.9774 112.551 78.7734 112.166C78.5807 111.781 78.303 111.486 77.9404 111.282C77.589 111.067 77.181 110.959 76.7164 110.959C76.2517 110.959 75.838 111.067 75.4754 111.282C75.1127 111.486 74.8294 111.786 74.6254 112.183C74.4214 112.568 74.3194 113.033 74.3194 113.577V119H73.0444ZM89.5031 119.204C88.8458 119.204 88.2338 119.091 87.6671 118.864C87.1118 118.637 86.6245 118.314 86.2051 117.895C85.7858 117.476 85.4685 116.977 85.2531 116.399L86.2901 115.889C86.5508 116.546 86.9758 117.068 87.5651 117.453C88.1658 117.827 88.8118 118.014 89.5031 118.014C90.0585 118.014 90.5515 117.884 90.9821 117.623C91.4241 117.362 91.7698 117.011 92.0191 116.569C92.2685 116.116 92.3931 115.611 92.3931 115.056C92.3931 114.478 92.2628 113.968 92.0021 113.526C91.7528 113.084 91.4128 112.738 90.9821 112.489C90.5515 112.228 90.0641 112.098 89.5201 112.098C88.9648 112.098 88.4491 112.228 87.9731 112.489C87.5085 112.738 87.1685 113.044 86.9531 113.407L85.8821 113.203L86.8341 106.335H93.2431V107.525H87.3271L87.8541 107.066L87.0891 112.472L86.5621 112.234C86.9588 111.747 87.4235 111.401 87.9561 111.197C88.4888 110.982 89.0328 110.874 89.5881 110.874C90.4041 110.874 91.1238 111.067 91.7471 111.452C92.3705 111.826 92.8578 112.33 93.2091 112.965C93.5718 113.588 93.7531 114.285 93.7531 115.056C93.7531 115.838 93.5661 116.546 93.1921 117.181C92.8295 117.804 92.3251 118.297 91.6791 118.66C91.0445 119.023 90.3191 119.204 89.5031 119.204ZM101.084 119.204C100.086 119.204 99.2081 118.932 98.4487 118.388C97.7007 117.833 97.1171 117.068 96.6977 116.093C96.2784 115.107 96.0687 113.962 96.0687 112.659C96.0687 111.356 96.2784 110.217 96.6977 109.242C97.1171 108.256 97.7007 107.491 98.4487 106.947C99.1967 106.403 100.069 106.131 101.067 106.131C102.064 106.131 102.937 106.403 103.685 106.947C104.433 107.491 105.016 108.256 105.436 109.242C105.855 110.217 106.065 111.356 106.065 112.659C106.065 113.962 105.855 115.107 105.436 116.093C105.028 117.079 104.45 117.844 103.702 118.388C102.954 118.932 102.081 119.204 101.084 119.204ZM101.084 117.929C101.809 117.929 102.444 117.708 102.988 117.266C103.532 116.824 103.957 116.212 104.263 115.43C104.569 114.637 104.722 113.713 104.722 112.659C104.722 111.605 104.569 110.687 104.263 109.905C103.957 109.112 103.532 108.5 102.988 108.069C102.444 107.627 101.803 107.406 101.067 107.406C100.341 107.406 99.7067 107.627 99.1627 108.069C98.6187 108.5 98.1937 109.112 97.8877 109.905C97.5817 110.687 97.4287 111.605 97.4287 112.659C97.4287 113.702 97.5817 114.62 97.8877 115.413C98.1937 116.206 98.6187 116.824 99.1627 117.266C99.7181 117.708 100.358 117.929 101.084 117.929ZM113.535 119.204C112.538 119.204 111.659 118.932 110.9 118.388C110.152 117.833 109.568 117.068 109.149 116.093C108.73 115.107 108.52 113.962 108.52 112.659C108.52 111.356 108.73 110.217 109.149 109.242C109.568 108.256 110.152 107.491 110.9 106.947C111.648 106.403 112.521 106.131 113.518 106.131C114.515 106.131 115.388 106.403 116.136 106.947C116.884 107.491 117.468 108.256 117.887 109.242C118.306 110.217 118.516 111.356 118.516 112.659C118.516 113.962 118.306 115.107 117.887 116.093C117.479 117.079 116.901 117.844 116.153 118.388C115.405 118.932 114.532 119.204 113.535 119.204ZM113.535 117.929C114.26 117.929 114.895 117.708 115.439 117.266C115.983 116.824 116.408 116.212 116.714 115.43C117.02 114.637 117.173 113.713 117.173 112.659C117.173 111.605 117.02 110.687 116.714 109.905C116.408 109.112 115.983 108.5 115.439 108.069C114.895 107.627 114.255 107.406 113.518 107.406C112.793 107.406 112.158 107.627 111.614 108.069C111.07 108.5 110.645 109.112 110.339 109.905C110.033 110.687 109.88 111.605 109.88 112.659C109.88 113.702 110.033 114.62 110.339 115.413C110.645 116.206 111.07 116.824 111.614 117.266C112.169 117.708 112.81 117.929 113.535 117.929ZM121.056 119V106.131H122.331V115.141L121.787 115.056L126.904 109.888H128.553L124.983 113.543L128.876 119H127.346L123.691 113.951L124.507 114.019L121.906 116.705L122.331 115.651V119H121.056ZM133.583 119V115.379H129.962V114.104H133.583V110.5H134.858V114.104H138.462V115.379H134.858V119H133.583ZM146.798 119.204C146.163 119.204 145.585 119.057 145.064 118.762C144.542 118.456 144.129 118.037 143.823 117.504C143.528 116.96 143.381 116.337 143.381 115.634V109.888H144.656V115.481C144.656 115.968 144.752 116.399 144.945 116.773C145.149 117.136 145.426 117.419 145.778 117.623C146.14 117.827 146.554 117.929 147.019 117.929C147.483 117.929 147.897 117.827 148.26 117.623C148.622 117.408 148.906 117.107 149.11 116.722C149.314 116.325 149.416 115.855 149.416 115.311V109.888H150.691V119H149.416V117.232L149.705 117.3C149.489 117.889 149.121 118.354 148.6 118.694C148.078 119.034 147.478 119.204 146.798 119.204ZM156.475 119.204C155.602 119.204 154.837 118.983 154.18 118.541C153.523 118.099 153.047 117.498 152.752 116.739L153.823 116.229C154.084 116.784 154.446 117.226 154.911 117.555C155.387 117.884 155.908 118.048 156.475 118.048C157.019 118.048 157.478 117.918 157.852 117.657C158.226 117.385 158.413 117.034 158.413 116.603C158.413 116.286 158.322 116.036 158.141 115.855C157.96 115.662 157.75 115.515 157.512 115.413C157.274 115.311 157.064 115.237 156.883 115.192L155.574 114.818C154.735 114.58 154.129 114.246 153.755 113.815C153.381 113.384 153.194 112.886 153.194 112.319C153.194 111.786 153.33 111.322 153.602 110.925C153.874 110.528 154.242 110.222 154.707 110.007C155.172 109.792 155.687 109.684 156.254 109.684C157.025 109.684 157.722 109.888 158.345 110.296C158.98 110.693 159.427 111.248 159.688 111.962L158.6 112.472C158.373 111.962 158.045 111.565 157.614 111.282C157.195 110.987 156.724 110.84 156.203 110.84C155.693 110.84 155.285 110.97 154.979 111.231C154.673 111.492 154.52 111.82 154.52 112.217C154.52 112.523 154.599 112.767 154.758 112.948C154.917 113.129 155.098 113.265 155.302 113.356C155.517 113.447 155.704 113.515 155.863 113.56L157.376 114.002C158.113 114.217 158.685 114.552 159.093 115.005C159.512 115.458 159.722 115.991 159.722 116.603C159.722 117.102 159.58 117.549 159.297 117.946C159.025 118.343 158.645 118.654 158.158 118.881C157.671 119.096 157.11 119.204 156.475 119.204ZM166.11 119.204C165.26 119.204 164.49 119 163.798 118.592C163.118 118.173 162.58 117.6 162.183 116.875C161.787 116.15 161.588 115.328 161.588 114.41C161.588 113.492 161.781 112.682 162.166 111.979C162.552 111.265 163.073 110.704 163.73 110.296C164.399 109.888 165.147 109.684 165.974 109.684C166.632 109.684 167.215 109.809 167.725 110.058C168.247 110.296 168.689 110.625 169.051 111.044C169.414 111.452 169.692 111.917 169.884 112.438C170.077 112.948 170.173 113.475 170.173 114.019C170.173 114.132 170.168 114.263 170.156 114.41C170.145 114.546 170.128 114.688 170.105 114.835H162.404V113.645H169.374L168.762 114.155C168.864 113.532 168.791 112.976 168.541 112.489C168.303 111.99 167.958 111.599 167.504 111.316C167.051 111.021 166.541 110.874 165.974 110.874C165.408 110.874 164.881 111.021 164.393 111.316C163.917 111.611 163.543 112.024 163.271 112.557C162.999 113.078 162.892 113.702 162.948 114.427C162.892 115.152 163.005 115.787 163.288 116.331C163.583 116.864 163.98 117.277 164.478 117.572C164.988 117.867 165.532 118.014 166.11 118.014C166.779 118.014 167.34 117.855 167.793 117.538C168.247 117.221 168.615 116.824 168.898 116.348L169.986 116.926C169.805 117.334 169.527 117.714 169.153 118.065C168.779 118.405 168.332 118.683 167.81 118.898C167.3 119.102 166.734 119.204 166.11 119.204ZM172.421 119V109.888H173.696V111.384L173.526 111.163C173.742 110.732 174.065 110.392 174.495 110.143C174.937 109.894 175.47 109.769 176.093 109.769H176.671V111.044H175.872C175.215 111.044 174.688 111.248 174.291 111.656C173.895 112.064 173.696 112.642 173.696 113.39V119H172.421ZM181.327 119.204C180.455 119.204 179.69 118.983 179.032 118.541C178.375 118.099 177.899 117.498 177.604 116.739L178.675 116.229C178.936 116.784 179.299 117.226 179.763 117.555C180.239 117.884 180.761 118.048 181.327 118.048C181.871 118.048 182.33 117.918 182.704 117.657C183.078 117.385 183.265 117.034 183.265 116.603C183.265 116.286 183.175 116.036 182.993 115.855C182.812 115.662 182.602 115.515 182.364 115.413C182.126 115.311 181.917 115.237 181.735 115.192L180.426 114.818C179.588 114.58 178.981 114.246 178.607 113.815C178.233 113.384 178.046 112.886 178.046 112.319C178.046 111.786 178.182 111.322 178.454 110.925C178.726 110.528 179.095 110.222 179.559 110.007C180.024 109.792 180.54 109.684 181.106 109.684C181.877 109.684 182.574 109.888 183.197 110.296C183.832 110.693 184.28 111.248 184.54 111.962L183.452 112.472C183.226 111.962 182.897 111.565 182.466 111.282C182.047 110.987 181.577 110.84 181.055 110.84C180.545 110.84 180.137 110.97 179.831 111.231C179.525 111.492 179.372 111.82 179.372 112.217C179.372 112.523 179.452 112.767 179.61 112.948C179.769 113.129 179.95 113.265 180.154 113.356C180.37 113.447 180.557 113.515 180.715 113.56L182.228 114.002C182.965 114.217 183.537 114.552 183.945 115.005C184.365 115.458 184.574 115.991 184.574 116.603C184.574 117.102 184.433 117.549 184.149 117.946C183.877 118.343 183.498 118.654 183.01 118.881C182.523 119.096 181.962 119.204 181.327 119.204ZM187.257 119V117.13H188.617V119H187.257Z" fill="#545479"/>
</svg>
