<svg width="211" height="124" viewBox="0 0 211 124" fill="none" xmlns="http://www.w3.org/2000/svg">
<path d="M2.552 46V43.8L11.704 33.724C13.4933 31.7587 14.9453 30.1307 16.06 28.84C17.204 27.5493 18.0547 26.376 18.612 25.32C19.1693 24.264 19.448 23.12 19.448 21.888C19.448 19.9227 18.876 18.412 17.732 17.356C16.588 16.3 15.0627 15.772 13.156 15.772C11.1907 15.772 9.53333 16.3293 8.184 17.444C6.864 18.5587 5.96933 20.1133 5.5 22.108L2.288 21.404C2.66933 19.6147 3.35867 18.0747 4.356 16.784C5.35333 15.4933 6.6 14.496 8.096 13.792C9.592 13.0587 11.264 12.692 13.112 12.692C15.0773 12.692 16.7933 13.088 18.26 13.88C19.7267 14.672 20.8707 15.7573 21.692 17.136C22.5427 18.5147 22.968 20.0987 22.968 21.888C22.968 23.12 22.704 24.308 22.176 25.452C21.6773 26.596 20.9147 27.828 19.888 29.148C18.8613 30.468 17.5413 32.008 15.928 33.768L7.612 42.92H23.848V46H2.552ZM43.9708 46.528C41.3895 46.528 39.1161 45.824 37.1508 44.416C35.2148 42.9787 33.7041 40.9987 32.6188 38.476C31.5335 35.924 30.9908 32.9613 30.9908 29.588C30.9908 26.2147 31.5335 23.2667 32.6188 20.744C33.7041 18.192 35.2148 16.212 37.1508 14.804C39.0868 13.396 41.3455 12.692 43.9268 12.692C46.5081 12.692 48.7668 13.396 50.7028 14.804C52.6388 16.212 54.1495 18.192 55.2348 20.744C56.3201 23.2667 56.8628 26.2147 56.8628 29.588C56.8628 32.9613 56.3201 35.924 55.2348 38.476C54.1788 41.028 52.6828 43.008 50.7468 44.416C48.8108 45.824 46.5521 46.528 43.9708 46.528ZM43.9708 43.228C45.8481 43.228 47.4908 42.656 48.8988 41.512C50.3068 40.368 51.4068 38.784 52.1988 36.76C52.9908 34.7067 53.3868 32.316 53.3868 29.588C53.3868 26.86 52.9908 24.484 52.1988 22.46C51.4068 20.4067 50.3068 18.8227 48.8988 17.708C47.4908 16.564 45.8335 15.992 43.9268 15.992C42.0495 15.992 40.4068 16.564 38.9988 17.708C37.5908 18.8227 36.4908 20.4067 35.6988 22.46C34.9068 24.484 34.5108 26.86 34.5108 29.588C34.5108 32.2867 34.9068 34.6627 35.6988 36.716C36.4908 38.7693 37.5908 40.368 38.9988 41.512C40.4361 42.656 42.0935 43.228 43.9708 43.228ZM64.8774 46V12.692H68.1774V36.012L66.7694 35.792L80.0134 22.416H84.2814L75.0414 31.876L85.1174 46H81.1574L71.6974 32.932L73.8094 33.108L67.0774 40.06L68.1774 37.332V46H64.8774Z" fill="#080829"/>
<path d="M99.768 47V36.776H89.544V33.176H99.768V23H103.368V33.176H113.544V36.776H103.368V47H99.768Z" fill="#3F53D8"/>
<path d="M7.276 92.204C6.38067 92.204 5.559 92.0453 4.811 91.728C4.063 91.3993 3.41133 90.946 2.856 90.368C2.312 89.7787 1.887 89.0873 1.581 88.294C1.275 87.5007 1.122 86.628 1.122 85.676C1.122 84.724 1.275 83.8513 1.581 83.058C1.887 82.2647 2.312 81.5733 2.856 80.984C3.41133 80.3947 4.063 79.9413 4.811 79.624C5.559 79.2953 6.38067 79.131 7.276 79.131C8.13733 79.131 8.908 79.284 9.588 79.59C10.2793 79.896 10.8573 80.2927 11.322 80.78C11.798 81.256 12.138 81.7603 12.342 82.293L11.067 82.854C10.7497 82.1173 10.2623 81.528 9.605 81.086C8.959 80.6327 8.18267 80.406 7.276 80.406C6.34667 80.406 5.51933 80.627 4.794 81.069C4.06867 81.511 3.502 82.1287 3.094 82.922C2.686 83.704 2.482 84.622 2.482 85.676C2.482 86.7187 2.686 87.6367 3.094 88.43C3.502 89.2233 4.06867 89.841 4.794 90.283C5.51933 90.7137 6.34667 90.929 7.276 90.929C8.18267 90.929 8.959 90.708 9.605 90.266C10.2623 89.824 10.7497 89.2347 11.067 88.498L12.342 89.059C12.138 89.5803 11.798 90.0847 11.322 90.572C10.8573 91.048 10.2793 91.439 9.588 91.745C8.908 92.051 8.13733 92.204 7.276 92.204ZM18.6912 92.204C17.8299 92.204 17.0479 92 16.3452 91.592C15.6426 91.1727 15.0816 90.606 14.6622 89.892C14.2542 89.1667 14.0502 88.345 14.0502 87.427C14.0502 86.5203 14.2542 85.71 14.6622 84.996C15.0702 84.282 15.6199 83.721 16.3112 83.313C17.0139 82.8937 17.8072 82.684 18.6912 82.684C19.5752 82.684 20.3629 82.888 21.0542 83.296C21.7569 83.704 22.3066 84.265 22.7032 84.979C23.1112 85.693 23.3152 86.509 23.3152 87.427C23.3152 88.3563 23.1056 89.1837 22.6862 89.909C22.2669 90.623 21.7059 91.184 21.0032 91.592C20.3119 92 19.5412 92.204 18.6912 92.204ZM18.6912 90.929C19.3032 90.929 19.8529 90.776 20.3402 90.47C20.8389 90.164 21.2299 89.7447 21.5132 89.212C21.8079 88.6793 21.9552 88.0843 21.9552 87.427C21.9552 86.7697 21.8079 86.1803 21.5132 85.659C21.2299 85.1377 20.8389 84.724 20.3402 84.418C19.8529 84.112 19.3032 83.959 18.6912 83.959C18.0792 83.959 17.5239 84.112 17.0252 84.418C16.5379 84.724 16.1469 85.1377 15.8522 85.659C15.5576 86.1803 15.4102 86.7697 15.4102 87.427C15.4102 88.0843 15.5576 88.6793 15.8522 89.212C16.1469 89.7447 16.5379 90.164 17.0252 90.47C17.5239 90.776 18.0792 90.929 18.6912 90.929ZM25.5639 92V79.131H26.8389V92H25.5639ZM29.4486 92V79.131H30.7236V92H29.4486ZM35.9684 92.204C35.3904 92.204 34.8747 92.0963 34.4214 91.881C33.9681 91.6543 33.6111 91.3483 33.3504 90.963C33.0897 90.5777 32.9594 90.1357 32.9594 89.637C32.9594 89.161 33.0614 88.7303 33.2654 88.345C33.4694 87.9483 33.7867 87.614 34.2174 87.342C34.6481 87.07 35.1977 86.8773 35.8664 86.764L39.4364 86.169V87.325L36.1724 87.869C35.5151 87.9823 35.0391 88.192 34.7444 88.498C34.4611 88.804 34.3194 89.1667 34.3194 89.586C34.3194 89.994 34.4781 90.3397 34.7954 90.623C35.1241 90.9063 35.5434 91.048 36.0534 91.048C36.6767 91.048 37.2207 90.9177 37.6854 90.657C38.1501 90.385 38.5127 90.0223 38.7734 89.569C39.0341 89.1157 39.1644 88.6113 39.1644 88.056V85.744C39.1644 85.2 38.9661 84.758 38.5694 84.418C38.1727 84.078 37.6571 83.908 37.0224 83.908C36.4671 83.908 35.9797 84.0497 35.5604 84.333C35.1411 84.605 34.8294 84.962 34.6254 85.404L33.4694 84.775C33.6394 84.3897 33.9057 84.0383 34.2684 83.721C34.6424 83.4037 35.0674 83.1543 35.5434 82.973C36.0194 82.7803 36.5124 82.684 37.0224 82.684C37.6911 82.684 38.2804 82.8143 38.7904 83.075C39.3117 83.3357 39.7141 83.6983 39.9974 84.163C40.2921 84.6163 40.4394 85.1433 40.4394 85.744V92H39.1644V90.181L39.3514 90.368C39.1927 90.708 38.9434 91.0197 38.6034 91.303C38.2747 91.575 37.8837 91.796 37.4304 91.966C36.9884 92.1247 36.5011 92.204 35.9684 92.204ZM47.6689 92.204C46.8869 92.204 46.1786 92.0283 45.5439 91.677C44.9206 91.3143 44.4503 90.8043 44.1329 90.147L44.3369 89.96V92H43.0619V79.131H44.3369V84.928L44.1329 84.571C44.4956 83.993 44.9773 83.534 45.5779 83.194C46.1899 82.854 46.8869 82.684 47.6689 82.684C48.5303 82.684 49.2953 82.8937 49.9639 83.313C50.6439 83.721 51.1766 84.282 51.5619 84.996C51.9586 85.71 52.1569 86.526 52.1569 87.444C52.1569 88.3507 51.9586 89.1667 51.5619 89.892C51.1766 90.606 50.6439 91.1727 49.9639 91.592C49.2953 92 48.5303 92.204 47.6689 92.204ZM47.6009 90.929C48.2129 90.929 48.7569 90.776 49.2329 90.47C49.7203 90.164 50.0999 89.7503 50.3719 89.229C50.6553 88.6963 50.7969 88.1013 50.7969 87.444C50.7969 86.7753 50.6553 86.1803 50.3719 85.659C50.0999 85.1377 49.7203 84.724 49.2329 84.418C48.7569 84.112 48.2129 83.959 47.6009 83.959C46.9889 83.959 46.4336 84.112 45.9349 84.418C45.4476 84.724 45.0566 85.1433 44.7619 85.676C44.4786 86.1973 44.3369 86.7867 44.3369 87.444C44.3369 88.1013 44.4786 88.6963 44.7619 89.229C45.0566 89.7503 45.4476 90.164 45.9349 90.47C46.4336 90.776 46.9889 90.929 47.6009 90.929ZM57.2895 92V79.131H58.5645V84.656L58.2755 84.588C58.5021 83.9987 58.8705 83.534 59.3805 83.194C59.9018 82.854 60.5025 82.684 61.1825 82.684C61.8285 82.684 62.4065 82.8313 62.9165 83.126C63.4378 83.4207 63.8458 83.8287 64.1405 84.35C64.4465 84.86 64.5995 85.438 64.5995 86.084V92H63.3245V86.577C63.3245 86.0217 63.2225 85.5513 63.0185 85.166C62.8145 84.7807 62.5311 84.486 62.1685 84.282C61.8171 84.0667 61.4148 83.959 60.9615 83.959C60.5081 83.959 60.1001 84.0667 59.7375 84.282C59.3748 84.486 59.0858 84.7863 58.8705 85.183C58.6665 85.5683 58.5645 86.033 58.5645 86.577V92H57.2895ZM69.6696 92.204C69.0916 92.204 68.5759 92.0963 68.1226 91.881C67.6693 91.6543 67.3123 91.3483 67.0516 90.963C66.7909 90.5777 66.6606 90.1357 66.6606 89.637C66.6606 89.161 66.7626 88.7303 66.9666 88.345C67.1706 87.9483 67.4879 87.614 67.9186 87.342C68.3493 87.07 68.8989 86.8773 69.5676 86.764L73.1376 86.169V87.325L69.8736 87.869C69.2163 87.9823 68.7403 88.192 68.4456 88.498C68.1623 88.804 68.0206 89.1667 68.0206 89.586C68.0206 89.994 68.1793 90.3397 68.4966 90.623C68.8253 90.9063 69.2446 91.048 69.7546 91.048C70.3779 91.048 70.9219 90.9177 71.3866 90.657C71.8513 90.385 72.2139 90.0223 72.4746 89.569C72.7353 89.1157 72.8656 88.6113 72.8656 88.056V85.744C72.8656 85.2 72.6673 84.758 72.2706 84.418C71.8739 84.078 71.3583 83.908 70.7236 83.908C70.1683 83.908 69.6809 84.0497 69.2616 84.333C68.8423 84.605 68.5306 84.962 68.3266 85.404L67.1706 84.775C67.3406 84.3897 67.6069 84.0383 67.9696 83.721C68.3436 83.4037 68.7686 83.1543 69.2446 82.973C69.7206 82.7803 70.2136 82.684 70.7236 82.684C71.3923 82.684 71.9816 82.8143 72.4916 83.075C73.0129 83.3357 73.4153 83.6983 73.6986 84.163C73.9933 84.6163 74.1406 85.1433 74.1406 85.744V92H72.8656V90.181L73.0526 90.368C72.8939 90.708 72.6446 91.0197 72.3046 91.303C71.9759 91.575 71.5849 91.796 71.1316 91.966C70.6896 92.1247 70.2023 92.204 69.6696 92.204ZM79.9251 92.204C79.0524 92.204 78.2874 91.983 77.6301 91.541C76.9728 91.099 76.4968 90.4983 76.2021 89.739L77.2731 89.229C77.5338 89.7843 77.8964 90.2263 78.3611 90.555C78.8371 90.8837 79.3584 91.048 79.9251 91.048C80.4691 91.048 80.9281 90.9177 81.3021 90.657C81.6761 90.385 81.8631 90.0337 81.8631 89.603C81.8631 89.2857 81.7724 89.0363 81.5911 88.855C81.4098 88.6623 81.2001 88.515 80.9621 88.413C80.7241 88.311 80.5144 88.2373 80.3331 88.192L79.0241 87.818C78.1854 87.58 77.5791 87.2457 77.2051 86.815C76.8311 86.3843 76.6441 85.8857 76.6441 85.319C76.6441 84.7863 76.7801 84.3217 77.0521 83.925C77.3241 83.5283 77.6924 83.2223 78.1571 83.007C78.6218 82.7917 79.1374 82.684 79.7041 82.684C80.4748 82.684 81.1718 82.888 81.7951 83.296C82.4298 83.6927 82.8774 84.248 83.1381 84.962L82.0501 85.472C81.8234 84.962 81.4948 84.5653 81.0641 84.282C80.6448 83.9873 80.1744 83.84 79.6531 83.84C79.1431 83.84 78.7351 83.9703 78.4291 84.231C78.1231 84.4917 77.9701 84.8203 77.9701 85.217C77.9701 85.523 78.0494 85.7667 78.2081 85.948C78.3668 86.1293 78.5481 86.2653 78.7521 86.356C78.9674 86.4467 79.1544 86.5147 79.3131 86.56L80.8261 87.002C81.5628 87.2173 82.1351 87.5517 82.5431 88.005C82.9624 88.4583 83.1721 88.991 83.1721 89.603C83.1721 90.1017 83.0304 90.5493 82.7471 90.946C82.4751 91.3427 82.0954 91.6543 81.6081 91.881C81.1208 92.0963 80.5598 92.204 79.9251 92.204ZM88.3012 92V82.888H89.5762V84.622L89.3722 84.367C89.6215 83.8343 89.9899 83.4207 90.4772 83.126C90.9759 82.8313 91.5199 82.684 92.1092 82.684C92.8119 82.684 93.4465 82.8823 94.0132 83.279C94.5799 83.6757 94.9822 84.1913 95.2202 84.826L94.8632 84.843C95.0899 84.1403 95.4809 83.6077 96.0362 83.245C96.6029 82.871 97.2262 82.684 97.9062 82.684C98.5182 82.684 99.0792 82.8313 99.5892 83.126C100.111 83.4207 100.524 83.8287 100.83 84.35C101.148 84.86 101.306 85.438 101.306 86.084V92H100.031V86.577C100.031 86.0217 99.9292 85.5513 99.7252 85.166C99.5325 84.7807 99.2662 84.486 98.9262 84.282C98.5862 84.0667 98.1952 83.959 97.7532 83.959C97.3225 83.959 96.9315 84.0667 96.5802 84.282C96.2289 84.486 95.9512 84.7863 95.7472 85.183C95.5432 85.5683 95.4412 86.033 95.4412 86.577V92H94.1662V86.577C94.1662 86.0217 94.0642 85.5513 93.8602 85.166C93.6675 84.7807 93.4012 84.486 93.0612 84.282C92.7212 84.0667 92.3302 83.959 91.8882 83.959C91.4462 83.959 91.0495 84.0667 90.6982 84.282C90.3582 84.486 90.0862 84.7863 89.8822 85.183C89.6782 85.5683 89.5762 86.033 89.5762 86.577V92H88.3012ZM108.008 92.204C107.146 92.204 106.364 92 105.662 91.592C104.959 91.1727 104.398 90.606 103.979 89.892C103.571 89.1667 103.367 88.345 103.367 87.427C103.367 86.5203 103.571 85.71 103.979 84.996C104.387 84.282 104.936 83.721 105.628 83.313C106.33 82.8937 107.124 82.684 108.008 82.684C108.892 82.684 109.679 82.888 110.371 83.296C111.073 83.704 111.623 84.265 112.02 84.979C112.428 85.693 112.632 86.509 112.632 87.427C112.632 88.3563 112.422 89.1837 112.003 89.909C111.583 90.623 111.022 91.184 110.32 91.592C109.628 92 108.858 92.204 108.008 92.204ZM108.008 90.929C108.62 90.929 109.169 90.776 109.657 90.47C110.155 90.164 110.546 89.7447 110.83 89.212C111.124 88.6793 111.272 88.0843 111.272 87.427C111.272 86.7697 111.124 86.1803 110.83 85.659C110.546 85.1377 110.155 84.724 109.657 84.418C109.169 84.112 108.62 83.959 108.008 83.959C107.396 83.959 106.84 84.112 106.342 84.418C105.854 84.724 105.463 85.1377 105.169 85.659C104.874 86.1803 104.727 86.7697 104.727 87.427C104.727 88.0843 104.874 88.6793 105.169 89.212C105.463 89.7447 105.854 90.164 106.342 90.47C106.84 90.776 107.396 90.929 108.008 90.929ZM114.88 92V82.888H116.155V84.384L115.985 84.163C116.201 83.7323 116.524 83.3923 116.954 83.143C117.396 82.8937 117.929 82.769 118.552 82.769H119.13V84.044H118.331C117.674 84.044 117.147 84.248 116.75 84.656C116.354 85.064 116.155 85.642 116.155 86.39V92H114.88ZM124.772 92.204C123.922 92.204 123.152 92 122.46 91.592C121.78 91.1727 121.242 90.6003 120.845 89.875C120.449 89.1497 120.25 88.328 120.25 87.41C120.25 86.492 120.443 85.6817 120.828 84.979C121.214 84.265 121.735 83.704 122.392 83.296C123.061 82.888 123.809 82.684 124.636 82.684C125.294 82.684 125.877 82.8087 126.387 83.058C126.909 83.296 127.351 83.6247 127.713 84.044C128.076 84.452 128.354 84.9167 128.546 85.438C128.739 85.948 128.835 86.475 128.835 87.019C128.835 87.1323 128.83 87.2627 128.818 87.41C128.807 87.546 128.79 87.6877 128.767 87.835H121.066V86.645H128.036L127.424 87.155C127.526 86.5317 127.453 85.9763 127.203 85.489C126.965 84.9903 126.62 84.5993 126.166 84.316C125.713 84.0213 125.203 83.874 124.636 83.874C124.07 83.874 123.543 84.0213 123.055 84.316C122.579 84.6107 122.205 85.0243 121.933 85.557C121.661 86.0783 121.554 86.7017 121.61 87.427C121.554 88.1523 121.667 88.787 121.95 89.331C122.245 89.8637 122.642 90.2773 123.14 90.572C123.65 90.8667 124.194 91.014 124.772 91.014C125.441 91.014 126.002 90.8553 126.455 90.538C126.909 90.2207 127.277 89.824 127.56 89.348L128.648 89.926C128.467 90.334 128.189 90.7137 127.815 91.065C127.441 91.405 126.994 91.6827 126.472 91.898C125.962 92.102 125.396 92.204 124.772 92.204ZM137.457 92.102C136.641 92.102 136.012 91.864 135.57 91.388C135.128 90.912 134.907 90.232 134.907 89.348V84.163H133.224V82.888H133.649C134.034 82.888 134.34 82.7633 134.567 82.514C134.794 82.2533 134.907 81.9303 134.907 81.545V80.78H136.182V82.888H138.188V84.163H136.182V89.348C136.182 89.654 136.227 89.926 136.318 90.164C136.409 90.3907 136.562 90.572 136.777 90.708C137.004 90.844 137.304 90.912 137.678 90.912C137.769 90.912 137.876 90.9063 138.001 90.895C138.126 90.8837 138.233 90.8723 138.324 90.861V92C138.188 92.034 138.035 92.0567 137.865 92.068C137.695 92.0907 137.559 92.102 137.457 92.102ZM140.563 92V79.131H141.838V84.656L141.549 84.588C141.776 83.9987 142.144 83.534 142.654 83.194C143.175 82.854 143.776 82.684 144.456 82.684C145.102 82.684 145.68 82.8313 146.19 83.126C146.711 83.4207 147.119 83.8287 147.414 84.35C147.72 84.86 147.873 85.438 147.873 86.084V92H146.598V86.577C146.598 86.0217 146.496 85.5513 146.292 85.166C146.088 84.7807 145.805 84.486 145.442 84.282C145.091 84.0667 144.688 83.959 144.235 83.959C143.782 83.959 143.374 84.0667 143.011 84.282C142.648 84.486 142.359 84.7863 142.144 85.183C141.94 85.5683 141.838 86.033 141.838 86.577V92H140.563ZM152.943 92.204C152.365 92.204 151.849 92.0963 151.396 91.881C150.943 91.6543 150.586 91.3483 150.325 90.963C150.064 90.5777 149.934 90.1357 149.934 89.637C149.934 89.161 150.036 88.7303 150.24 88.345C150.444 87.9483 150.761 87.614 151.192 87.342C151.623 87.07 152.172 86.8773 152.841 86.764L156.411 86.169V87.325L153.147 87.869C152.49 87.9823 152.014 88.192 151.719 88.498C151.436 88.804 151.294 89.1667 151.294 89.586C151.294 89.994 151.453 90.3397 151.77 90.623C152.099 90.9063 152.518 91.048 153.028 91.048C153.651 91.048 154.195 90.9177 154.66 90.657C155.125 90.385 155.487 90.0223 155.748 89.569C156.009 89.1157 156.139 88.6113 156.139 88.056V85.744C156.139 85.2 155.941 84.758 155.544 84.418C155.147 84.078 154.632 83.908 153.997 83.908C153.442 83.908 152.954 84.0497 152.535 84.333C152.116 84.605 151.804 84.962 151.6 85.404L150.444 84.775C150.614 84.3897 150.88 84.0383 151.243 83.721C151.617 83.4037 152.042 83.1543 152.518 82.973C152.994 82.7803 153.487 82.684 153.997 82.684C154.666 82.684 155.255 82.8143 155.765 83.075C156.286 83.3357 156.689 83.6983 156.972 84.163C157.267 84.6163 157.414 85.1433 157.414 85.744V92H156.139V90.181L156.326 90.368C156.167 90.708 155.918 91.0197 155.578 91.303C155.249 91.575 154.858 91.796 154.405 91.966C153.963 92.1247 153.476 92.204 152.943 92.204ZM160.037 92V82.888H161.312V84.656L161.023 84.588C161.249 83.9987 161.618 83.534 162.128 83.194C162.649 82.854 163.25 82.684 163.93 82.684C164.576 82.684 165.154 82.8313 165.664 83.126C166.185 83.4207 166.593 83.8287 166.888 84.35C167.194 84.86 167.347 85.438 167.347 86.084V92H166.072V86.577C166.072 86.0217 165.97 85.5513 165.766 85.166C165.573 84.7807 165.295 84.486 164.933 84.282C164.581 84.0667 164.173 83.959 163.709 83.959C163.244 83.959 162.83 84.0667 162.468 84.282C162.105 84.486 161.822 84.7863 161.618 85.183C161.414 85.5683 161.312 86.033 161.312 86.577V92H160.037ZM0.986 119V118.15L4.522 114.257C5.21333 113.498 5.77433 112.869 6.205 112.37C6.647 111.871 6.97567 111.418 7.191 111.01C7.40633 110.602 7.514 110.16 7.514 109.684C7.514 108.925 7.293 108.341 6.851 107.933C6.409 107.525 5.81967 107.321 5.083 107.321C4.32367 107.321 3.68333 107.536 3.162 107.967C2.652 108.398 2.30633 108.998 2.125 109.769L0.884 109.497C1.03133 108.806 1.29767 108.211 1.683 107.712C2.06833 107.213 2.55 106.828 3.128 106.556C3.706 106.273 4.352 106.131 5.066 106.131C5.82533 106.131 6.48833 106.284 7.055 106.59C7.62167 106.896 8.06367 107.315 8.381 107.848C8.70967 108.381 8.874 108.993 8.874 109.684C8.874 110.16 8.772 110.619 8.568 111.061C8.37533 111.503 8.08067 111.979 7.684 112.489C7.28733 112.999 6.77733 113.594 6.154 114.274L2.941 117.81H9.214V119H0.986ZM16.4324 119.204C15.435 119.204 14.5567 118.932 13.7974 118.388C13.0494 117.833 12.4657 117.068 12.0464 116.093C11.627 115.107 11.4174 113.962 11.4174 112.659C11.4174 111.356 11.627 110.217 12.0464 109.242C12.4657 108.256 13.0494 107.491 13.7974 106.947C14.5454 106.403 15.418 106.131 16.4154 106.131C17.4127 106.131 18.2854 106.403 19.0334 106.947C19.7814 107.491 20.365 108.256 20.7844 109.242C21.2037 110.217 21.4134 111.356 21.4134 112.659C21.4134 113.962 21.2037 115.107 20.7844 116.093C20.3764 117.079 19.7984 117.844 19.0504 118.388C18.3024 118.932 17.4297 119.204 16.4324 119.204ZM16.4324 117.929C17.1577 117.929 17.7924 117.708 18.3364 117.266C18.8804 116.824 19.3054 116.212 19.6114 115.43C19.9174 114.637 20.0704 113.713 20.0704 112.659C20.0704 111.605 19.9174 110.687 19.6114 109.905C19.3054 109.112 18.8804 108.5 18.3364 108.069C17.7924 107.627 17.152 107.406 16.4154 107.406C15.69 107.406 15.0554 107.627 14.5114 108.069C13.9674 108.5 13.5424 109.112 13.2364 109.905C12.9304 110.687 12.7774 111.605 12.7774 112.659C12.7774 113.702 12.9304 114.62 13.2364 115.413C13.5424 116.206 13.9674 116.824 14.5114 117.266C15.0667 117.708 15.707 117.929 16.4324 117.929ZM23.9535 119V106.131H25.2285V115.141L24.6845 115.056L29.8015 109.888H31.4505L27.8805 113.543L31.7735 119H30.2435L26.5885 113.951L27.4045 114.019L24.8035 116.705L25.2285 115.651V119H23.9535ZM36.48 119V115.379H32.859V114.104H36.48V110.5H37.755V114.104H41.359V115.379H37.755V119H36.48ZM50.2903 119.204C49.6329 119.204 49.0209 119.091 48.4543 118.864C47.8989 118.637 47.4116 118.314 46.9923 117.895C46.5729 117.476 46.2556 116.977 46.0403 116.399L47.0773 115.889C47.3379 116.546 47.7629 117.068 48.3523 117.453C48.9529 117.827 49.5989 118.014 50.2903 118.014C50.8456 118.014 51.3386 117.884 51.7693 117.623C52.2113 117.362 52.5569 117.011 52.8063 116.569C53.0556 116.116 53.1803 115.611 53.1803 115.056C53.1803 114.478 53.0499 113.968 52.7893 113.526C52.5399 113.084 52.1999 112.738 51.7693 112.489C51.3386 112.228 50.8513 112.098 50.3073 112.098C49.7519 112.098 49.2363 112.228 48.7603 112.489C48.2956 112.738 47.9556 113.044 47.7403 113.407L46.6693 113.203L47.6213 106.335H54.0303V107.525H48.1143L48.6413 107.066L47.8763 112.472L47.3493 112.234C47.7459 111.747 48.2106 111.401 48.7433 111.197C49.2759 110.982 49.8199 110.874 50.3753 110.874C51.1913 110.874 51.9109 111.067 52.5343 111.452C53.1576 111.826 53.6449 112.33 53.9963 112.965C54.3589 113.588 54.5403 114.285 54.5403 115.056C54.5403 115.838 54.3533 116.546 53.9793 117.181C53.6166 117.804 53.1123 118.297 52.4663 118.66C51.8316 119.023 51.1063 119.204 50.2903 119.204ZM62.9915 119.204C62.1188 119.204 61.3538 118.983 60.6965 118.541C60.0392 118.099 59.5632 117.498 59.2685 116.739L60.3395 116.229C60.6002 116.784 60.9628 117.226 61.4275 117.555C61.9035 117.884 62.4248 118.048 62.9915 118.048C63.5355 118.048 63.9945 117.918 64.3685 117.657C64.7425 117.385 64.9295 117.034 64.9295 116.603C64.9295 116.286 64.8388 116.036 64.6575 115.855C64.4762 115.662 64.2665 115.515 64.0285 115.413C63.7905 115.311 63.5808 115.237 63.3995 115.192L62.0905 114.818C61.2518 114.58 60.6455 114.246 60.2715 113.815C59.8975 113.384 59.7105 112.886 59.7105 112.319C59.7105 111.786 59.8465 111.322 60.1185 110.925C60.3905 110.528 60.7588 110.222 61.2235 110.007C61.6882 109.792 62.2038 109.684 62.7705 109.684C63.5412 109.684 64.2382 109.888 64.8615 110.296C65.4962 110.693 65.9438 111.248 66.2045 111.962L65.1165 112.472C64.8898 111.962 64.5612 111.565 64.1305 111.282C63.7112 110.987 63.2408 110.84 62.7195 110.84C62.2095 110.84 61.8015 110.97 61.4955 111.231C61.1895 111.492 61.0365 111.82 61.0365 112.217C61.0365 112.523 61.1158 112.767 61.2745 112.948C61.4332 113.129 61.6145 113.265 61.8185 113.356C62.0338 113.447 62.2208 113.515 62.3795 113.56L63.8925 114.002C64.6292 114.217 65.2015 114.552 65.6095 115.005C66.0288 115.458 66.2385 115.991 66.2385 116.603C66.2385 117.102 66.0968 117.549 65.8135 117.946C65.5415 118.343 65.1618 118.654 64.6745 118.881C64.1872 119.096 63.6262 119.204 62.9915 119.204ZM71.9639 119.102C71.1479 119.102 70.5189 118.864 70.0769 118.388C69.6349 117.912 69.4139 117.232 69.4139 116.348V111.163H67.7309V109.888H68.1559C68.5413 109.888 68.8473 109.763 69.0739 109.514C69.3006 109.253 69.4139 108.93 69.4139 108.545V107.78H70.6889V109.888H72.6949V111.163H70.6889V116.348C70.6889 116.654 70.7343 116.926 70.8249 117.164C70.9156 117.391 71.0686 117.572 71.2839 117.708C71.5106 117.844 71.8109 117.912 72.1849 117.912C72.2756 117.912 72.3833 117.906 72.5079 117.895C72.6326 117.884 72.7403 117.872 72.8309 117.861V119C72.6949 119.034 72.5419 119.057 72.3719 119.068C72.2019 119.091 72.0659 119.102 71.9639 119.102ZM77.5387 119.204C76.9607 119.204 76.4451 119.096 75.9917 118.881C75.5384 118.654 75.1814 118.348 74.9207 117.963C74.6601 117.578 74.5297 117.136 74.5297 116.637C74.5297 116.161 74.6317 115.73 74.8357 115.345C75.0397 114.948 75.3571 114.614 75.7877 114.342C76.2184 114.07 76.7681 113.877 77.4367 113.764L81.0067 113.169V114.325L77.7427 114.869C77.0854 114.982 76.6094 115.192 76.3147 115.498C76.0314 115.804 75.8897 116.167 75.8897 116.586C75.8897 116.994 76.0484 117.34 76.3657 117.623C76.6944 117.906 77.1137 118.048 77.6237 118.048C78.2471 118.048 78.7911 117.918 79.2557 117.657C79.7204 117.385 80.0831 117.022 80.3437 116.569C80.6044 116.116 80.7347 115.611 80.7347 115.056V112.744C80.7347 112.2 80.5364 111.758 80.1397 111.418C79.7431 111.078 79.2274 110.908 78.5927 110.908C78.0374 110.908 77.5501 111.05 77.1307 111.333C76.7114 111.605 76.3997 111.962 76.1957 112.404L75.0397 111.775C75.2097 111.39 75.4761 111.038 75.8387 110.721C76.2127 110.404 76.6377 110.154 77.1137 109.973C77.5897 109.78 78.0827 109.684 78.5927 109.684C79.2614 109.684 79.8507 109.814 80.3607 110.075C80.8821 110.336 81.2844 110.698 81.5677 111.163C81.8624 111.616 82.0097 112.143 82.0097 112.744V119H80.7347V117.181L80.9217 117.368C80.7631 117.708 80.5137 118.02 80.1737 118.303C79.8451 118.575 79.4541 118.796 79.0007 118.966C78.5587 119.125 78.0714 119.204 77.5387 119.204ZM84.6322 119V109.888H85.9072V111.384L85.7372 111.163C85.9526 110.732 86.2756 110.392 86.7062 110.143C87.1482 109.894 87.6809 109.769 88.3042 109.769H88.8822V111.044H88.0832C87.4259 111.044 86.8989 111.248 86.5022 111.656C86.1056 112.064 85.9072 112.642 85.9072 113.39V119H84.6322ZM93.8614 119.102C93.0454 119.102 92.4164 118.864 91.9744 118.388C91.5324 117.912 91.3114 117.232 91.3114 116.348V111.163H89.6284V109.888H90.0534C90.4387 109.888 90.7447 109.763 90.9714 109.514C91.198 109.253 91.3114 108.93 91.3114 108.545V107.78H92.5864V109.888H94.5924V111.163H92.5864V116.348C92.5864 116.654 92.6317 116.926 92.7224 117.164C92.813 117.391 92.966 117.572 93.1814 117.708C93.408 117.844 93.7084 117.912 94.0824 117.912C94.173 117.912 94.2807 117.906 94.4054 117.895C94.53 117.884 94.6377 117.872 94.7284 117.861V119C94.5924 119.034 94.4394 119.057 94.2694 119.068C94.0994 119.091 93.9634 119.102 93.8614 119.102ZM99.8559 119V109.888H101.131V111.384L100.961 111.163C101.176 110.732 101.499 110.392 101.93 110.143C102.372 109.894 102.905 109.769 103.528 109.769H104.106V111.044H103.307C102.65 111.044 102.123 111.248 101.726 111.656C101.329 112.064 101.131 112.642 101.131 113.39V119H99.8559ZM109.748 119.204C108.898 119.204 108.127 119 107.436 118.592C106.756 118.173 106.218 117.6 105.821 116.875C105.424 116.15 105.226 115.328 105.226 114.41C105.226 113.492 105.419 112.682 105.804 111.979C106.189 111.265 106.711 110.704 107.368 110.296C108.037 109.888 108.785 109.684 109.612 109.684C110.269 109.684 110.853 109.809 111.363 110.058C111.884 110.296 112.326 110.625 112.689 111.044C113.052 111.452 113.329 111.917 113.522 112.438C113.715 112.948 113.811 113.475 113.811 114.019C113.811 114.132 113.805 114.263 113.794 114.41C113.783 114.546 113.766 114.688 113.743 114.835H106.042V113.645H113.012L112.4 114.155C112.502 113.532 112.428 112.976 112.179 112.489C111.941 111.99 111.595 111.599 111.142 111.316C110.689 111.021 110.179 110.874 109.612 110.874C109.045 110.874 108.518 111.021 108.031 111.316C107.555 111.611 107.181 112.024 106.909 112.557C106.637 113.078 106.529 113.702 106.586 114.427C106.529 115.152 106.643 115.787 106.926 116.331C107.221 116.864 107.617 117.277 108.116 117.572C108.626 117.867 109.17 118.014 109.748 118.014C110.417 118.014 110.978 117.855 111.431 117.538C111.884 117.221 112.253 116.824 112.536 116.348L113.624 116.926C113.443 117.334 113.165 117.714 112.791 118.065C112.417 118.405 111.969 118.683 111.448 118.898C110.938 119.102 110.371 119.204 109.748 119.204ZM118.324 119L114.771 109.888H116.199L119.191 117.878H118.732L121.741 109.888H123.186L119.599 119H118.324ZM124.675 119V109.888H125.95V119H124.675ZM124.675 108.205V106.335H125.95V108.205H124.675ZM132.708 119.204C131.858 119.204 131.087 119 130.396 118.592C129.716 118.173 129.178 117.6 128.781 116.875C128.384 116.15 128.186 115.328 128.186 114.41C128.186 113.492 128.379 112.682 128.764 111.979C129.149 111.265 129.671 110.704 130.328 110.296C130.997 109.888 131.745 109.684 132.572 109.684C133.229 109.684 133.813 109.809 134.323 110.058C134.844 110.296 135.286 110.625 135.649 111.044C136.012 111.452 136.289 111.917 136.482 112.438C136.675 112.948 136.771 113.475 136.771 114.019C136.771 114.132 136.765 114.263 136.754 114.41C136.743 114.546 136.726 114.688 136.703 114.835H129.002V113.645H135.972L135.36 114.155C135.462 113.532 135.388 112.976 135.139 112.489C134.901 111.99 134.555 111.599 134.102 111.316C133.649 111.021 133.139 110.874 132.572 110.874C132.005 110.874 131.478 111.021 130.991 111.316C130.515 111.611 130.141 112.024 129.869 112.557C129.597 113.078 129.489 113.702 129.546 114.427C129.489 115.152 129.603 115.787 129.886 116.331C130.181 116.864 130.577 117.277 131.076 117.572C131.586 117.867 132.13 118.014 132.708 118.014C133.377 118.014 133.938 117.855 134.391 117.538C134.844 117.221 135.213 116.824 135.496 116.348L136.584 116.926C136.403 117.334 136.125 117.714 135.751 118.065C135.377 118.405 134.929 118.683 134.408 118.898C133.898 119.102 133.331 119.204 132.708 119.204ZM141.025 119L137.897 109.888H139.342L141.926 117.861H141.416L143.847 109.888H145.122L147.553 117.861H147.043L149.644 109.888H151.072L147.944 119H146.669L144.306 111.197H144.663L142.3 119H141.025ZM155.728 119.204C154.855 119.204 154.09 118.983 153.433 118.541C152.776 118.099 152.3 117.498 152.005 116.739L153.076 116.229C153.337 116.784 153.699 117.226 154.164 117.555C154.64 117.884 155.161 118.048 155.728 118.048C156.272 118.048 156.731 117.918 157.105 117.657C157.479 117.385 157.666 117.034 157.666 116.603C157.666 116.286 157.575 116.036 157.394 115.855C157.213 115.662 157.003 115.515 156.765 115.413C156.527 115.311 156.317 115.237 156.136 115.192L154.827 114.818C153.988 114.58 153.382 114.246 153.008 113.815C152.634 113.384 152.447 112.886 152.447 112.319C152.447 111.786 152.583 111.322 152.855 110.925C153.127 110.528 153.495 110.222 153.96 110.007C154.425 109.792 154.94 109.684 155.507 109.684C156.278 109.684 156.975 109.888 157.598 110.296C158.233 110.693 158.68 111.248 158.941 111.962L157.853 112.472C157.626 111.962 157.298 111.565 156.867 111.282C156.448 110.987 155.977 110.84 155.456 110.84C154.946 110.84 154.538 110.97 154.232 111.231C153.926 111.492 153.773 111.82 153.773 112.217C153.773 112.523 153.852 112.767 154.011 112.948C154.17 113.129 154.351 113.265 154.555 113.356C154.77 113.447 154.957 113.515 155.116 113.56L156.629 114.002C157.366 114.217 157.938 114.552 158.346 115.005C158.765 115.458 158.975 115.991 158.975 116.603C158.975 117.102 158.833 117.549 158.55 117.946C158.278 118.343 157.898 118.654 157.411 118.881C156.924 119.096 156.363 119.204 155.728 119.204ZM161.657 119V117.13H163.017V119H161.657Z" fill="#545479"/>
</svg>
