<svg width="211" height="124" viewBox="0 0 211 124" fill="none" xmlns="http://www.w3.org/2000/svg">
<path d="M7.783 45V15.975H1.763V12.965H11.223V45H7.783ZM33.178 45.516C30.6554 45.516 28.4337 44.828 26.513 43.452C24.621 42.0473 23.1447 40.1123 22.084 37.647C21.0234 35.153 20.493 32.2577 20.493 28.961C20.493 25.6643 21.0234 22.7833 22.084 20.318C23.1447 17.824 24.621 15.889 26.513 14.513C28.405 13.137 30.6124 12.449 33.135 12.449C35.6577 12.449 37.865 13.137 39.757 14.513C41.649 15.889 43.1254 17.824 44.186 20.318C45.2467 22.7833 45.777 25.6643 45.777 28.961C45.777 32.2577 45.2467 35.153 44.186 37.647C43.154 40.141 41.692 42.076 39.8 43.452C37.908 44.828 35.7007 45.516 33.178 45.516ZM33.178 42.291C35.0127 42.291 36.618 41.732 37.994 40.614C39.37 39.496 40.445 37.948 41.219 35.97C41.993 33.9633 42.38 31.627 42.38 28.961C42.38 26.295 41.993 23.973 41.219 21.995C40.445 19.9883 39.37 18.4403 37.994 17.351C36.618 16.233 34.9984 15.674 33.135 15.674C31.3004 15.674 29.695 16.233 28.319 17.351C26.943 18.4403 25.868 19.9883 25.094 21.995C24.32 23.973 23.933 26.295 23.933 28.961C23.933 31.5983 24.32 33.9203 25.094 35.927C25.868 37.9337 26.943 39.496 28.319 40.614C29.7237 41.732 31.3434 42.291 33.178 42.291ZM66.1122 45.516C63.5895 45.516 61.3678 44.828 59.4472 43.452C57.5552 42.0473 56.0788 40.1123 55.0182 37.647C53.9575 35.153 53.4272 32.2577 53.4272 28.961C53.4272 25.6643 53.9575 22.7833 55.0182 20.318C56.0788 17.824 57.5552 15.889 59.4472 14.513C61.3392 13.137 63.5465 12.449 66.0692 12.449C68.5918 12.449 70.7992 13.137 72.6912 14.513C74.5832 15.889 76.0595 17.824 77.1202 20.318C78.1808 22.7833 78.7112 25.6643 78.7112 28.961C78.7112 32.2577 78.1808 35.153 77.1202 37.647C76.0882 40.141 74.6262 42.076 72.7342 43.452C70.8422 44.828 68.6348 45.516 66.1122 45.516ZM66.1122 42.291C67.9468 42.291 69.5522 41.732 70.9282 40.614C72.3042 39.496 73.3792 37.948 74.1532 35.97C74.9272 33.9633 75.3142 31.627 75.3142 28.961C75.3142 26.295 74.9272 23.973 74.1532 21.995C73.3792 19.9883 72.3042 18.4403 70.9282 17.351C69.5522 16.233 67.9325 15.674 66.0692 15.674C64.2345 15.674 62.6292 16.233 61.2532 17.351C59.8772 18.4403 58.8022 19.9883 58.0282 21.995C57.2542 23.973 56.8672 26.295 56.8672 28.961C56.8672 31.5983 57.2542 33.9203 58.0282 35.927C58.8022 37.9337 59.8772 39.496 61.2532 40.614C62.6578 41.732 64.2775 42.291 66.1122 42.291ZM86.5763 45V12.449H89.8013V35.239L88.4253 35.024L101.368 21.952H105.539L96.5093 31.197L106.356 45H102.486L93.2413 32.229L95.3053 32.401L88.7263 39.195L89.8013 36.529V45H86.5763Z" fill="#080829"/>
<path d="M121.768 47V36.776H111.544V33.176H121.768V23H125.368V33.176H135.544V36.776H125.368V47H121.768Z" fill="#3F53D8"/>
<path d="M1.496 92V79.335H2.686L7.446 86.237H6.783L11.526 79.335H12.716V92H11.356V81.171L11.798 81.341L7.14 88.09H7.072L2.431 81.341L2.856 81.171V92H1.496ZM19.7869 92.204C18.9256 92.204 18.1436 92 17.4409 91.592C16.7383 91.1727 16.1773 90.606 15.7579 89.892C15.3499 89.1667 15.1459 88.345 15.1459 87.427C15.1459 86.5203 15.3499 85.71 15.7579 84.996C16.1659 84.282 16.7156 83.721 17.4069 83.313C18.1096 82.8937 18.9029 82.684 19.7869 82.684C20.6709 82.684 21.4586 82.888 22.1499 83.296C22.8526 83.704 23.4023 84.265 23.7989 84.979C24.2069 85.693 24.4109 86.509 24.4109 87.427C24.4109 88.3563 24.2013 89.1837 23.7819 89.909C23.3626 90.623 22.8016 91.184 22.0989 91.592C21.4076 92 20.6369 92.204 19.7869 92.204ZM19.7869 90.929C20.3989 90.929 20.9486 90.776 21.4359 90.47C21.9346 90.164 22.3256 89.7447 22.6089 89.212C22.9036 88.6793 23.0509 88.0843 23.0509 87.427C23.0509 86.7697 22.9036 86.1803 22.6089 85.659C22.3256 85.1377 21.9346 84.724 21.4359 84.418C20.9486 84.112 20.3989 83.959 19.7869 83.959C19.1749 83.959 18.6196 84.112 18.1209 84.418C17.6336 84.724 17.2426 85.1377 16.9479 85.659C16.6533 86.1803 16.5059 86.7697 16.5059 87.427C16.5059 88.0843 16.6533 88.6793 16.9479 89.212C17.2426 89.7447 17.6336 90.164 18.1209 90.47C18.6196 90.776 19.1749 90.929 19.7869 90.929ZM26.6596 92V82.888H27.9346V84.384L27.7646 84.163C27.9799 83.7323 28.3029 83.3923 28.7336 83.143C29.1756 82.8937 29.7083 82.769 30.3316 82.769H30.9096V84.044H30.1106C29.4533 84.044 28.9263 84.248 28.5296 84.656C28.1329 85.064 27.9346 85.642 27.9346 86.39V92H26.6596ZM36.5517 92.204C35.7017 92.204 34.9311 92 34.2397 91.592C33.5597 91.1727 33.0214 90.6003 32.6247 89.875C32.2281 89.1497 32.0297 88.328 32.0297 87.41C32.0297 86.492 32.2224 85.6817 32.6077 84.979C32.9931 84.265 33.5144 83.704 34.1717 83.296C34.8404 82.888 35.5884 82.684 36.4157 82.684C37.0731 82.684 37.6567 82.8087 38.1667 83.058C38.6881 83.296 39.1301 83.6247 39.4927 84.044C39.8554 84.452 40.1331 84.9167 40.3257 85.438C40.5184 85.948 40.6147 86.475 40.6147 87.019C40.6147 87.1323 40.6091 87.2627 40.5977 87.41C40.5864 87.546 40.5694 87.6877 40.5467 87.835H32.8457V86.645H39.8157L39.2037 87.155C39.3057 86.5317 39.2321 85.9763 38.9827 85.489C38.7447 84.9903 38.3991 84.5993 37.9457 84.316C37.4924 84.0213 36.9824 83.874 36.4157 83.874C35.8491 83.874 35.3221 84.0213 34.8347 84.316C34.3587 84.6107 33.9847 85.0243 33.7127 85.557C33.4407 86.0783 33.3331 86.7017 33.3897 87.427C33.3331 88.1523 33.4464 88.787 33.7297 89.331C34.0244 89.8637 34.4211 90.2773 34.9197 90.572C35.4297 90.8667 35.9737 91.014 36.5517 91.014C37.2204 91.014 37.7814 90.8553 38.2347 90.538C38.6881 90.2207 39.0564 89.824 39.3397 89.348L40.4277 89.926C40.2464 90.334 39.9687 90.7137 39.5947 91.065C39.2207 91.405 38.7731 91.6827 38.2517 91.898C37.7417 92.102 37.1751 92.204 36.5517 92.204ZM49.2364 92.102C48.4204 92.102 47.7914 91.864 47.3494 91.388C46.9074 90.912 46.6864 90.232 46.6864 89.348V84.163H45.0034V82.888H45.4284C45.8137 82.888 46.1197 82.7633 46.3464 82.514C46.573 82.2533 46.6864 81.9303 46.6864 81.545V80.78H47.9614V82.888H49.9674V84.163H47.9614V89.348C47.9614 89.654 48.0067 89.926 48.0974 90.164C48.188 90.3907 48.341 90.572 48.5564 90.708C48.783 90.844 49.0834 90.912 49.4574 90.912C49.548 90.912 49.6557 90.9063 49.7804 90.895C49.905 90.8837 50.0127 90.8723 50.1034 90.861V92C49.9674 92.034 49.8144 92.0567 49.6444 92.068C49.4744 92.0907 49.3384 92.102 49.2364 92.102ZM52.3422 92V79.131H53.6172V84.656L53.3282 84.588C53.5549 83.9987 53.9232 83.534 54.4332 83.194C54.9545 82.854 55.5552 82.684 56.2352 82.684C56.8812 82.684 57.4592 82.8313 57.9692 83.126C58.4905 83.4207 58.8985 83.8287 59.1932 84.35C59.4992 84.86 59.6522 85.438 59.6522 86.084V92H58.3772V86.577C58.3772 86.0217 58.2752 85.5513 58.0712 85.166C57.8672 84.7807 57.5839 84.486 57.2212 84.282C56.8699 84.0667 56.4675 83.959 56.0142 83.959C55.5609 83.959 55.1529 84.0667 54.7902 84.282C54.4275 84.486 54.1385 84.7863 53.9232 85.183C53.7192 85.5683 53.6172 86.033 53.6172 86.577V92H52.3422ZM64.7223 92.204C64.1443 92.204 63.6287 92.0963 63.1753 91.881C62.722 91.6543 62.365 91.3483 62.1043 90.963C61.8437 90.5777 61.7133 90.1357 61.7133 89.637C61.7133 89.161 61.8153 88.7303 62.0193 88.345C62.2233 87.9483 62.5407 87.614 62.9713 87.342C63.402 87.07 63.9517 86.8773 64.6203 86.764L68.1903 86.169V87.325L64.9263 87.869C64.269 87.9823 63.793 88.192 63.4983 88.498C63.215 88.804 63.0733 89.1667 63.0733 89.586C63.0733 89.994 63.232 90.3397 63.5493 90.623C63.878 90.9063 64.2973 91.048 64.8073 91.048C65.4307 91.048 65.9747 90.9177 66.4393 90.657C66.904 90.385 67.2667 90.0223 67.5273 89.569C67.788 89.1157 67.9183 88.6113 67.9183 88.056V85.744C67.9183 85.2 67.72 84.758 67.3233 84.418C66.9267 84.078 66.411 83.908 65.7763 83.908C65.221 83.908 64.7337 84.0497 64.3143 84.333C63.895 84.605 63.5833 84.962 63.3793 85.404L62.2233 84.775C62.3933 84.3897 62.6597 84.0383 63.0223 83.721C63.3963 83.4037 63.8213 83.1543 64.2973 82.973C64.7733 82.7803 65.2663 82.684 65.7763 82.684C66.445 82.684 67.0343 82.8143 67.5443 83.075C68.0657 83.3357 68.468 83.6983 68.7513 84.163C69.046 84.6163 69.1933 85.1433 69.1933 85.744V92H67.9183V90.181L68.1053 90.368C67.9467 90.708 67.6973 91.0197 67.3573 91.303C67.0287 91.575 66.6377 91.796 66.1843 91.966C65.7423 92.1247 65.255 92.204 64.7223 92.204ZM71.8158 92V82.888H73.0908V84.656L72.8018 84.588C73.0285 83.9987 73.3968 83.534 73.9068 83.194C74.4282 82.854 75.0288 82.684 75.7088 82.684C76.3548 82.684 76.9328 82.8313 77.4428 83.126C77.9642 83.4207 78.3722 83.8287 78.6668 84.35C78.9728 84.86 79.1258 85.438 79.1258 86.084V92H77.8508V86.577C77.8508 86.0217 77.7488 85.5513 77.5448 85.166C77.3522 84.7807 77.0745 84.486 76.7118 84.282C76.3605 84.0667 75.9525 83.959 75.4878 83.959C75.0232 83.959 74.6095 84.0667 74.2468 84.282C73.8842 84.486 73.6008 84.7863 73.3968 85.183C73.1928 85.5683 73.0908 86.033 73.0908 86.577V92H71.8158ZM86.2176 92V80.525H83.8376V79.335H87.5776V92H86.2176ZM95.6882 92.204C94.6909 92.204 93.8126 91.932 93.0532 91.388C92.3052 90.8327 91.7216 90.0677 91.3022 89.093C90.8829 88.107 90.6732 86.9623 90.6732 85.659C90.6732 84.3557 90.8829 83.2167 91.3022 82.242C91.7216 81.256 92.3052 80.491 93.0532 79.947C93.8012 79.403 94.6739 79.131 95.6712 79.131C96.6686 79.131 97.5412 79.403 98.2892 79.947C99.0372 80.491 99.6209 81.256 100.04 82.242C100.46 83.2167 100.669 84.3557 100.669 85.659C100.669 86.9623 100.46 88.107 100.04 89.093C99.6322 90.079 99.0542 90.844 98.3062 91.388C97.5582 91.932 96.6856 92.204 95.6882 92.204ZM95.6882 90.929C96.4136 90.929 97.0482 90.708 97.5922 90.266C98.1362 89.824 98.5612 89.212 98.8672 88.43C99.1732 87.6367 99.3262 86.713 99.3262 85.659C99.3262 84.605 99.1732 83.687 98.8672 82.905C98.5612 82.1117 98.1362 81.4997 97.5922 81.069C97.0482 80.627 96.4079 80.406 95.6712 80.406C94.9459 80.406 94.3112 80.627 93.7672 81.069C93.2232 81.4997 92.7982 82.1117 92.4922 82.905C92.1862 83.687 92.0332 84.605 92.0332 85.659C92.0332 86.7017 92.1862 87.6197 92.4922 88.413C92.7982 89.2063 93.2232 89.824 93.7672 90.266C94.3226 90.708 94.9629 90.929 95.6882 90.929ZM108.139 92.204C107.142 92.204 106.264 91.932 105.504 91.388C104.756 90.8327 104.173 90.0677 103.753 89.093C103.334 88.107 103.124 86.9623 103.124 85.659C103.124 84.3557 103.334 83.2167 103.753 82.242C104.173 81.256 104.756 80.491 105.504 79.947C106.252 79.403 107.125 79.131 108.122 79.131C109.12 79.131 109.992 79.403 110.74 79.947C111.488 80.491 112.072 81.256 112.491 82.242C112.911 83.2167 113.12 84.3557 113.12 85.659C113.12 86.9623 112.911 88.107 112.491 89.093C112.083 90.079 111.505 90.844 110.757 91.388C110.009 91.932 109.137 92.204 108.139 92.204ZM108.139 90.929C108.865 90.929 109.499 90.708 110.043 90.266C110.587 89.824 111.012 89.212 111.318 88.43C111.624 87.6367 111.777 86.713 111.777 85.659C111.777 84.605 111.624 83.687 111.318 82.905C111.012 82.1117 110.587 81.4997 110.043 81.069C109.499 80.627 108.859 80.406 108.122 80.406C107.397 80.406 106.762 80.627 106.218 81.069C105.674 81.4997 105.249 82.1117 104.943 82.905C104.637 83.687 104.484 84.605 104.484 85.659C104.484 86.7017 104.637 87.6197 104.943 88.413C105.249 89.2063 105.674 89.824 106.218 90.266C106.774 90.708 107.414 90.929 108.139 90.929ZM115.661 92V79.131H116.936V88.141L116.392 88.056L121.509 82.888H123.158L119.588 86.543L123.481 92H121.951L118.296 86.951L119.112 87.019L116.511 89.705L116.936 88.651V92H115.661ZM128.187 92V88.379H124.566V87.104H128.187V83.5H129.462V87.104H133.066V88.379H129.462V92H128.187ZM141.657 92.102C140.841 92.102 140.212 91.864 139.77 91.388C139.328 90.912 139.107 90.232 139.107 89.348V84.163H137.424V82.888H137.849C138.235 82.888 138.541 82.7633 138.767 82.514C138.994 82.2533 139.107 81.9303 139.107 81.545V80.78H140.382V82.888H142.388V84.163H140.382V89.348C140.382 89.654 140.428 89.926 140.518 90.164C140.609 90.3907 140.762 90.572 140.977 90.708C141.204 90.844 141.504 90.912 141.878 90.912C141.969 90.912 142.077 90.9063 142.201 90.895C142.326 90.8837 142.434 90.8723 142.524 90.861V92C142.388 92.034 142.235 92.0567 142.065 92.068C141.895 92.0907 141.759 92.102 141.657 92.102ZM148.579 92.204C147.729 92.204 146.958 92 146.267 91.592C145.587 91.1727 145.049 90.6003 144.652 89.875C144.255 89.1497 144.057 88.328 144.057 87.41C144.057 86.492 144.25 85.6817 144.635 84.979C145.02 84.265 145.542 83.704 146.199 83.296C146.868 82.888 147.616 82.684 148.443 82.684C149.1 82.684 149.684 82.8087 150.194 83.058C150.715 83.296 151.157 83.6247 151.52 84.044C151.883 84.452 152.16 84.9167 152.353 85.438C152.546 85.948 152.642 86.475 152.642 87.019C152.642 87.1323 152.636 87.2627 152.625 87.41C152.614 87.546 152.597 87.6877 152.574 87.835H144.873V86.645H151.843L151.231 87.155C151.333 86.5317 151.259 85.9763 151.01 85.489C150.772 84.9903 150.426 84.5993 149.973 84.316C149.52 84.0213 149.01 83.874 148.443 83.874C147.876 83.874 147.349 84.0213 146.862 84.316C146.386 84.6107 146.012 85.0243 145.74 85.557C145.468 86.0783 145.36 86.7017 145.417 87.427C145.36 88.1523 145.474 88.787 145.757 89.331C146.052 89.8637 146.448 90.2773 146.947 90.572C147.457 90.8667 148.001 91.014 148.579 91.014C149.248 91.014 149.809 90.8553 150.262 90.538C150.715 90.2207 151.084 89.824 151.367 89.348L152.455 89.926C152.274 90.334 151.996 90.7137 151.622 91.065C151.248 91.405 150.8 91.6827 150.279 91.898C149.769 92.102 149.202 92.204 148.579 92.204ZM157.359 92.204C156.781 92.204 156.265 92.0963 155.812 91.881C155.359 91.6543 155.002 91.3483 154.741 90.963C154.48 90.5777 154.35 90.1357 154.35 89.637C154.35 89.161 154.452 88.7303 154.656 88.345C154.86 87.9483 155.177 87.614 155.608 87.342C156.039 87.07 156.588 86.8773 157.257 86.764L160.827 86.169V87.325L157.563 87.869C156.906 87.9823 156.43 88.192 156.135 88.498C155.852 88.804 155.71 89.1667 155.71 89.586C155.71 89.994 155.869 90.3397 156.186 90.623C156.515 90.9063 156.934 91.048 157.444 91.048C158.067 91.048 158.611 90.9177 159.076 90.657C159.541 90.385 159.903 90.0223 160.164 89.569C160.425 89.1157 160.555 88.6113 160.555 88.056V85.744C160.555 85.2 160.357 84.758 159.96 84.418C159.563 84.078 159.048 83.908 158.413 83.908C157.858 83.908 157.37 84.0497 156.951 84.333C156.532 84.605 156.22 84.962 156.016 85.404L154.86 84.775C155.03 84.3897 155.296 84.0383 155.659 83.721C156.033 83.4037 156.458 83.1543 156.934 82.973C157.41 82.7803 157.903 82.684 158.413 82.684C159.082 82.684 159.671 82.8143 160.181 83.075C160.702 83.3357 161.105 83.6983 161.388 84.163C161.683 84.6163 161.83 85.1433 161.83 85.744V92H160.555V90.181L160.742 90.368C160.583 90.708 160.334 91.0197 159.994 91.303C159.665 91.575 159.274 91.796 158.821 91.966C158.379 92.1247 157.892 92.204 157.359 92.204ZM164.453 92V82.888H165.728V84.622L165.524 84.367C165.773 83.8343 166.141 83.4207 166.629 83.126C167.127 82.8313 167.671 82.684 168.261 82.684C168.963 82.684 169.598 82.8823 170.165 83.279C170.731 83.6757 171.134 84.1913 171.372 84.826L171.015 84.843C171.241 84.1403 171.632 83.6077 172.188 83.245C172.754 82.871 173.378 82.684 174.058 82.684C174.67 82.684 175.231 82.8313 175.741 83.126C176.262 83.4207 176.676 83.8287 176.982 84.35C177.299 84.86 177.458 85.438 177.458 86.084V92H176.183V86.577C176.183 86.0217 176.081 85.5513 175.877 85.166C175.684 84.7807 175.418 84.486 175.078 84.282C174.738 84.0667 174.347 83.959 173.905 83.959C173.474 83.959 173.083 84.0667 172.732 84.282C172.38 84.486 172.103 84.7863 171.899 85.183C171.695 85.5683 171.593 86.033 171.593 86.577V92H170.318V86.577C170.318 86.0217 170.216 85.5513 170.012 85.166C169.819 84.7807 169.553 84.486 169.213 84.282C168.873 84.0667 168.482 83.959 168.04 83.959C167.598 83.959 167.201 84.0667 166.85 84.282C166.51 84.486 166.238 84.7863 166.034 85.183C165.83 85.5683 165.728 86.033 165.728 86.577V92H164.453ZM183.054 92.204C182.181 92.204 181.416 91.983 180.759 91.541C180.102 91.099 179.626 90.4983 179.331 89.739L180.402 89.229C180.663 89.7843 181.025 90.2263 181.49 90.555C181.966 90.8837 182.487 91.048 183.054 91.048C183.598 91.048 184.057 90.9177 184.431 90.657C184.805 90.385 184.992 90.0337 184.992 89.603C184.992 89.2857 184.901 89.0363 184.72 88.855C184.539 88.6623 184.329 88.515 184.091 88.413C183.853 88.311 183.643 88.2373 183.462 88.192L182.153 87.818C181.314 87.58 180.708 87.2457 180.334 86.815C179.96 86.3843 179.773 85.8857 179.773 85.319C179.773 84.7863 179.909 84.3217 180.181 83.925C180.453 83.5283 180.821 83.2223 181.286 83.007C181.751 82.7917 182.266 82.684 182.833 82.684C183.604 82.684 184.301 82.888 184.924 83.296C185.559 83.6927 186.006 84.248 186.267 84.962L185.179 85.472C184.952 84.962 184.624 84.5653 184.193 84.282C183.774 83.9873 183.303 83.84 182.782 83.84C182.272 83.84 181.864 83.9703 181.558 84.231C181.252 84.4917 181.099 84.8203 181.099 85.217C181.099 85.523 181.178 85.7667 181.337 85.948C181.496 86.1293 181.677 86.2653 181.881 86.356C182.096 86.4467 182.283 86.5147 182.442 86.56L183.955 87.002C184.692 87.2173 185.264 87.5517 185.672 88.005C186.091 88.4583 186.301 88.991 186.301 89.603C186.301 90.1017 186.159 90.5493 185.876 90.946C185.604 91.3427 185.224 91.6543 184.737 91.881C184.25 92.0963 183.689 92.204 183.054 92.204ZM3.944 119.204C3.366 119.204 2.85033 119.096 2.397 118.881C1.94367 118.654 1.58667 118.348 1.326 117.963C1.06533 117.578 0.935 117.136 0.935 116.637C0.935 116.161 1.037 115.73 1.241 115.345C1.445 114.948 1.76233 114.614 2.193 114.342C2.62367 114.07 3.17333 113.877 3.842 113.764L7.412 113.169V114.325L4.148 114.869C3.49067 114.982 3.01467 115.192 2.72 115.498C2.43667 115.804 2.295 116.167 2.295 116.586C2.295 116.994 2.45367 117.34 2.771 117.623C3.09967 117.906 3.519 118.048 4.029 118.048C4.65233 118.048 5.19633 117.918 5.661 117.657C6.12567 117.385 6.48833 117.022 6.749 116.569C7.00967 116.116 7.14 115.611 7.14 115.056V112.744C7.14 112.2 6.94167 111.758 6.545 111.418C6.14833 111.078 5.63267 110.908 4.998 110.908C4.44267 110.908 3.95533 111.05 3.536 111.333C3.11667 111.605 2.805 111.962 2.601 112.404L1.445 111.775C1.615 111.39 1.88133 111.038 2.244 110.721C2.618 110.404 3.043 110.154 3.519 109.973C3.995 109.78 4.488 109.684 4.998 109.684C5.66667 109.684 6.256 109.814 6.766 110.075C7.28733 110.336 7.68967 110.698 7.973 111.163C8.26767 111.616 8.415 112.143 8.415 112.744V119H7.14V117.181L7.327 117.368C7.16833 117.708 6.919 118.02 6.579 118.303C6.25033 118.575 5.85933 118.796 5.406 118.966C4.964 119.125 4.47667 119.204 3.944 119.204ZM11.0375 119V109.888H12.3125V111.384L12.1425 111.163C12.3578 110.732 12.6808 110.392 13.1115 110.143C13.5535 109.894 14.0862 109.769 14.7095 109.769H15.2875V111.044H14.4885C13.8312 111.044 13.3042 111.248 12.9075 111.656C12.5108 112.064 12.3125 112.642 12.3125 113.39V119H11.0375ZM20.9297 119.204C20.0797 119.204 19.309 119 18.6177 118.592C17.9377 118.173 17.3993 117.6 17.0027 116.875C16.606 116.15 16.4077 115.328 16.4077 114.41C16.4077 113.492 16.6003 112.682 16.9857 111.979C17.371 111.265 17.8923 110.704 18.5497 110.296C19.2183 109.888 19.9663 109.684 20.7937 109.684C21.451 109.684 22.0347 109.809 22.5447 110.058C23.066 110.296 23.508 110.625 23.8707 111.044C24.2333 111.452 24.511 111.917 24.7037 112.438C24.8963 112.948 24.9927 113.475 24.9927 114.019C24.9927 114.132 24.987 114.263 24.9757 114.41C24.9643 114.546 24.9473 114.688 24.9247 114.835H17.2237V113.645H24.1937L23.5817 114.155C23.6837 113.532 23.61 112.976 23.3607 112.489C23.1227 111.99 22.777 111.599 22.3237 111.316C21.8703 111.021 21.3603 110.874 20.7937 110.874C20.227 110.874 19.7 111.021 19.2127 111.316C18.7367 111.611 18.3627 112.024 18.0907 112.557C17.8187 113.078 17.711 113.702 17.7677 114.427C17.711 115.152 17.8243 115.787 18.1077 116.331C18.4023 116.864 18.799 117.277 19.2977 117.572C19.8077 117.867 20.3517 118.014 20.9297 118.014C21.5983 118.014 22.1593 117.855 22.6127 117.538C23.066 117.221 23.4343 116.824 23.7177 116.348L24.8057 116.926C24.6243 117.334 24.3467 117.714 23.9727 118.065C23.5987 118.405 23.151 118.683 22.6297 118.898C22.1197 119.102 21.553 119.204 20.9297 119.204ZM33.3593 119.204C32.7246 119.204 32.1466 119.057 31.6253 118.762C31.104 118.456 30.6903 118.037 30.3843 117.504C30.0896 116.96 29.9423 116.337 29.9423 115.634V109.888H31.2173V115.481C31.2173 115.968 31.3136 116.399 31.5063 116.773C31.7103 117.136 31.988 117.419 32.3393 117.623C32.702 117.827 33.1156 117.929 33.5803 117.929C34.045 117.929 34.4586 117.827 34.8213 117.623C35.184 117.408 35.4673 117.107 35.6713 116.722C35.8753 116.325 35.9773 115.855 35.9773 115.311V109.888H37.2523V119H35.9773V117.232L36.2663 117.3C36.051 117.889 35.6826 118.354 35.1613 118.694C34.64 119.034 34.0393 119.204 33.3593 119.204ZM43.0364 119.204C42.1638 119.204 41.3988 118.983 40.7414 118.541C40.0841 118.099 39.6081 117.498 39.3134 116.739L40.3844 116.229C40.6451 116.784 41.0078 117.226 41.4724 117.555C41.9484 117.884 42.4698 118.048 43.0364 118.048C43.5804 118.048 44.0394 117.918 44.4134 117.657C44.7874 117.385 44.9744 117.034 44.9744 116.603C44.9744 116.286 44.8838 116.036 44.7024 115.855C44.5211 115.662 44.3114 115.515 44.0734 115.413C43.8354 115.311 43.6258 115.237 43.4444 115.192L42.1354 114.818C41.2968 114.58 40.6904 114.246 40.3164 113.815C39.9424 113.384 39.7554 112.886 39.7554 112.319C39.7554 111.786 39.8914 111.322 40.1634 110.925C40.4354 110.528 40.8038 110.222 41.2684 110.007C41.7331 109.792 42.2488 109.684 42.8154 109.684C43.5861 109.684 44.2831 109.888 44.9064 110.296C45.5411 110.693 45.9888 111.248 46.2494 111.962L45.1614 112.472C44.9348 111.962 44.6061 111.565 44.1754 111.282C43.7561 110.987 43.2858 110.84 42.7644 110.84C42.2544 110.84 41.8464 110.97 41.5404 111.231C41.2344 111.492 41.0814 111.82 41.0814 112.217C41.0814 112.523 41.1608 112.767 41.3194 112.948C41.4781 113.129 41.6594 113.265 41.8634 113.356C42.0788 113.447 42.2658 113.515 42.4244 113.56L43.9374 114.002C44.6741 114.217 45.2464 114.552 45.6544 115.005C46.0738 115.458 46.2834 115.991 46.2834 116.603C46.2834 117.102 46.1418 117.549 45.8584 117.946C45.5864 118.343 45.2068 118.654 44.7194 118.881C44.2321 119.096 43.6711 119.204 43.0364 119.204ZM48.5238 119V109.888H49.7988V119H48.5238ZM48.5238 108.205V106.335H49.7988V108.205H48.5238ZM52.4086 119V109.888H53.6836V111.656L53.3946 111.588C53.6213 110.999 53.9896 110.534 54.4996 110.194C55.0209 109.854 55.6216 109.684 56.3016 109.684C56.9476 109.684 57.5256 109.831 58.0356 110.126C58.5569 110.421 58.9649 110.829 59.2596 111.35C59.5656 111.86 59.7186 112.438 59.7186 113.084V119H58.4436V113.577C58.4436 113.022 58.3416 112.551 58.1376 112.166C57.9449 111.781 57.6673 111.486 57.3046 111.282C56.9533 111.067 56.5453 110.959 56.0806 110.959C55.6159 110.959 55.2023 111.067 54.8396 111.282C54.4769 111.486 54.1936 111.786 53.9896 112.183C53.7856 112.568 53.6836 113.033 53.6836 113.577V119H52.4086ZM66.4717 122.74C65.8484 122.74 65.2704 122.644 64.7377 122.451C64.2164 122.258 63.7631 121.992 63.3777 121.652C63.0037 121.323 62.7147 120.938 62.5107 120.496L63.6837 119.867C63.8651 120.298 64.1881 120.672 64.6527 120.989C65.1174 121.306 65.7124 121.465 66.4377 121.465C66.9931 121.465 67.5031 121.357 67.9677 121.142C68.4324 120.927 68.8064 120.609 69.0897 120.19C69.3731 119.771 69.5147 119.255 69.5147 118.643V116.62L69.7187 116.807C69.4014 117.464 68.9311 117.974 68.3077 118.337C67.6844 118.688 67.0044 118.864 66.2677 118.864C65.4177 118.864 64.6527 118.66 63.9727 118.252C63.2927 117.844 62.7544 117.294 62.3577 116.603C61.9724 115.9 61.7797 115.124 61.7797 114.274C61.7797 113.413 61.9724 112.636 62.3577 111.945C62.7544 111.254 63.2871 110.704 63.9557 110.296C64.6357 109.888 65.4064 109.684 66.2677 109.684C67.0044 109.684 67.6731 109.854 68.2737 110.194C68.8857 110.534 69.3674 110.993 69.7187 111.571L69.5147 111.928V109.888H70.7897V118.643C70.7897 119.425 70.6027 120.122 70.2287 120.734C69.8661 121.357 69.3561 121.845 68.6987 122.196C68.0527 122.559 67.3104 122.74 66.4717 122.74ZM66.3357 117.589C66.9251 117.589 67.4577 117.442 67.9337 117.147C68.4097 116.841 68.7894 116.439 69.0727 115.94C69.3674 115.43 69.5147 114.875 69.5147 114.274C69.5147 113.673 69.3674 113.124 69.0727 112.625C68.7894 112.115 68.4097 111.713 67.9337 111.418C67.4577 111.112 66.9251 110.959 66.3357 110.959C65.7351 110.959 65.1911 111.112 64.7037 111.418C64.2164 111.713 63.8311 112.109 63.5477 112.608C63.2757 113.107 63.1397 113.662 63.1397 114.274C63.1397 114.875 63.2757 115.43 63.5477 115.94C63.8311 116.439 64.2107 116.841 64.6867 117.147C65.1741 117.442 65.7237 117.589 66.3357 117.589ZM82.2653 119.204C81.3699 119.204 80.5483 119.045 79.8003 118.728C79.0523 118.399 78.4006 117.946 77.8453 117.368C77.3013 116.779 76.8763 116.087 76.5703 115.294C76.2643 114.501 76.1113 113.628 76.1113 112.676C76.1113 111.724 76.2643 110.851 76.5703 110.058C76.8763 109.265 77.3013 108.573 77.8453 107.984C78.4006 107.395 79.0523 106.941 79.8003 106.624C80.5483 106.295 81.3699 106.131 82.2653 106.131C83.1266 106.131 83.8973 106.284 84.5773 106.59C85.2686 106.896 85.8466 107.293 86.3113 107.78C86.7873 108.256 87.1273 108.76 87.3313 109.293L86.0563 109.854C85.7389 109.117 85.2516 108.528 84.5943 108.086C83.9483 107.633 83.1719 107.406 82.2653 107.406C81.3359 107.406 80.5086 107.627 79.7833 108.069C79.0579 108.511 78.4913 109.129 78.0833 109.922C77.6753 110.704 77.4713 111.622 77.4713 112.676C77.4713 113.719 77.6753 114.637 78.0833 115.43C78.4913 116.223 79.0579 116.841 79.7833 117.283C80.5086 117.714 81.3359 117.929 82.2653 117.929C83.1719 117.929 83.9483 117.708 84.5943 117.266C85.2516 116.824 85.7389 116.235 86.0563 115.498L87.3313 116.059C87.1273 116.58 86.7873 117.085 86.3113 117.572C85.8466 118.048 85.2686 118.439 84.5773 118.745C83.8973 119.051 83.1266 119.204 82.2653 119.204ZM93.6805 119.204C92.8192 119.204 92.0372 119 91.3345 118.592C90.6318 118.173 90.0708 117.606 89.6515 116.892C89.2435 116.167 89.0395 115.345 89.0395 114.427C89.0395 113.52 89.2435 112.71 89.6515 111.996C90.0595 111.282 90.6092 110.721 91.3005 110.313C92.0032 109.894 92.7965 109.684 93.6805 109.684C94.5645 109.684 95.3522 109.888 96.0435 110.296C96.7462 110.704 97.2958 111.265 97.6925 111.979C98.1005 112.693 98.3045 113.509 98.3045 114.427C98.3045 115.356 98.0948 116.184 97.6755 116.909C97.2562 117.623 96.6952 118.184 95.9925 118.592C95.3012 119 94.5305 119.204 93.6805 119.204ZM93.6805 117.929C94.2925 117.929 94.8422 117.776 95.3295 117.47C95.8282 117.164 96.2192 116.745 96.5025 116.212C96.7972 115.679 96.9445 115.084 96.9445 114.427C96.9445 113.77 96.7972 113.18 96.5025 112.659C96.2192 112.138 95.8282 111.724 95.3295 111.418C94.8422 111.112 94.2925 110.959 93.6805 110.959C93.0685 110.959 92.5132 111.112 92.0145 111.418C91.5272 111.724 91.1362 112.138 90.8415 112.659C90.5468 113.18 90.3995 113.77 90.3995 114.427C90.3995 115.084 90.5468 115.679 90.8415 116.212C91.1362 116.745 91.5272 117.164 92.0145 117.47C92.5132 117.776 93.0685 117.929 93.6805 117.929ZM100.553 119V106.131H101.828V119H100.553ZM104.438 119V106.131H105.713V119H104.438ZM110.958 119.204C110.38 119.204 109.864 119.096 109.411 118.881C108.957 118.654 108.6 118.348 108.34 117.963C108.079 117.578 107.949 117.136 107.949 116.637C107.949 116.161 108.051 115.73 108.255 115.345C108.459 114.948 108.776 114.614 109.207 114.342C109.637 114.07 110.187 113.877 110.856 113.764L114.426 113.169V114.325L111.162 114.869C110.504 114.982 110.028 115.192 109.734 115.498C109.45 115.804 109.309 116.167 109.309 116.586C109.309 116.994 109.467 117.34 109.785 117.623C110.113 117.906 110.533 118.048 111.043 118.048C111.666 118.048 112.21 117.918 112.675 117.657C113.139 117.385 113.502 117.022 113.763 116.569C114.023 116.116 114.154 115.611 114.154 115.056V112.744C114.154 112.2 113.955 111.758 113.559 111.418C113.162 111.078 112.646 110.908 112.012 110.908C111.456 110.908 110.969 111.05 110.55 111.333C110.13 111.605 109.819 111.962 109.615 112.404L108.459 111.775C108.629 111.39 108.895 111.038 109.258 110.721C109.632 110.404 110.057 110.154 110.533 109.973C111.009 109.78 111.502 109.684 112.012 109.684C112.68 109.684 113.27 109.814 113.78 110.075C114.301 110.336 114.703 110.698 114.987 111.163C115.281 111.616 115.429 112.143 115.429 112.744V119H114.154V117.181L114.341 117.368C114.182 117.708 113.933 118.02 113.593 118.303C113.264 118.575 112.873 118.796 112.42 118.966C111.978 119.125 111.49 119.204 110.958 119.204ZM122.658 119.204C121.876 119.204 121.168 119.028 120.533 118.677C119.91 118.314 119.44 117.804 119.122 117.147L119.326 116.96V119H118.051V106.131H119.326V111.928L119.122 111.571C119.485 110.993 119.967 110.534 120.567 110.194C121.179 109.854 121.876 109.684 122.658 109.684C123.52 109.684 124.285 109.894 124.953 110.313C125.633 110.721 126.166 111.282 126.551 111.996C126.948 112.71 127.146 113.526 127.146 114.444C127.146 115.351 126.948 116.167 126.551 116.892C126.166 117.606 125.633 118.173 124.953 118.592C124.285 119 123.52 119.204 122.658 119.204ZM122.59 117.929C123.202 117.929 123.746 117.776 124.222 117.47C124.71 117.164 125.089 116.75 125.361 116.229C125.645 115.696 125.786 115.101 125.786 114.444C125.786 113.775 125.645 113.18 125.361 112.659C125.089 112.138 124.71 111.724 124.222 111.418C123.746 111.112 123.202 110.959 122.59 110.959C121.978 110.959 121.423 111.112 120.924 111.418C120.437 111.724 120.046 112.143 119.751 112.676C119.468 113.197 119.326 113.787 119.326 114.444C119.326 115.101 119.468 115.696 119.751 116.229C120.046 116.75 120.437 117.164 120.924 117.47C121.423 117.776 121.978 117.929 122.59 117.929ZM129.832 119V117.13H131.192V119H129.832Z" fill="#545479"/>
</svg>
